<?xml version="1.0" encoding="utf-8"?>
<!-- Generator: Adobe Illustrator 16.0.0, SVG Export Plug-In . SVG Version: 6.00 Build 0)  -->
<!DOCTYPE svg PUBLIC "-//W3C//DTD SVG 1.1//EN" "http://www.w3.org/Graphics/SVG/1.1/DTD/svg11.dtd">
<svg version="1.1" id="Capa_1" xmlns="http://www.w3.org/2000/svg" xmlns:xlink="http://www.w3.org/1999/xlink" x="0px" y="0px"
	 width="106.297px" height="104.789px" viewBox="0 0 106.297 104.789" enable-background="new 0 0 106.297 104.789"
	 xml:space="preserve">
<g>
	<linearGradient id="SVGID_1_" gradientUnits="userSpaceOnUse" x1="0" y1="81.5527" x2="106.2969" y2="81.5527">
		<stop  offset="0" style="stop-color:#F1B018"/>
		<stop  offset="1" style="stop-color:#B3312A"/>
	</linearGradient>
	<path fill="url(#SVGID_1_)" d="M100.127,72.769c-1.426,0,1.19-0.365-37.031,9.158c-0.31-1.061-0.881-2.063-1.714-2.896
		L49.904,67.553c-1.424-1.423-3.316-2.207-5.329-2.207H21.678c-0.432-3.947-3.787-7.029-7.846-7.029H7.894
		C3.541,58.316,0,61.857,0,66.211V93.94c0,4.354,3.541,7.896,7.894,7.896h5.938c4.351,0,7.894-3.542,7.894-7.896v-2.766
		c3.792,0.807,8.239,0.875,14.242,3.812c11.875,5.866,12.319,5.893,14.415,7.244c5.239,3.376,11.969,3.416,17.253,0.088
		l29.73-15.073c0.77-0.391,1.077-1.332,0.688-2.102c-0.391-0.77-1.332-1.077-2.102-0.687C64.864,100.223,66.146,99.563,66.024,99.64
		c-4.265,2.714-9.713,2.692-13.948-0.037c-2.343-1.51-3.075-1.657-14.735-7.424c-6.556-3.208-11.463-3.294-15.616-4.177v-19.53
		h22.849c1.178,0,2.286,0.458,3.12,1.292l11.477,11.479c2.261,2.259,0.74,6.053-2.391,6.053c-0.934,0-1.813-0.365-2.476-1.025
		L43.967,75.926c-0.61-0.61-1.601-0.61-2.211,0c-0.611,0.611-0.611,1.602,0,2.211L52.097,88.48
		c3.729,3.716,10.145,1.822,11.148-3.368l36.549-9.2c1.819-0.196,3.376,1.236,3.376,3.035c0,1.978-1.619,2.66-1.641,2.682
		c-0.77,0.391-1.076,1.331-0.687,2.101c0.39,0.771,1.33,1.078,2.101,0.688l0.359-0.183c1.564-0.789,2.994-2.92,2.994-5.287
		C106.296,75.54,103.527,72.769,100.127,72.769z M18.6,93.941c0,2.63-2.14,4.77-4.768,4.77H7.894c-2.627,0-4.768-2.14-4.768-4.77
		v-27.73c0-2.628,2.14-4.769,4.768-4.769h5.938c2.332,0,4.28,1.687,4.689,3.904C18.64,65.986,18.6,93.918,18.6,93.941z"/>
	<linearGradient id="SVGID_2_" gradientUnits="userSpaceOnUse" x1="5.5518" y1="90.4502" x2="16.1709" y2="90.4502">
		<stop  offset="0" style="stop-color:#F1B018"/>
		<stop  offset="1" style="stop-color:#B3312A"/>
	</linearGradient>
	<path fill="url(#SVGID_2_)" d="M12.958,85.421c-0.792-0.341-1.712,0.026-2.053,0.818c-0.342,0.793,0.025,1.713,0.818,2.054
		c2.178,0.937,1.489,4.187-0.86,4.187c-1.479,0-2.525-1.442-2.08-2.841c0.261-0.823-0.194-1.703-1.017-1.964
		c-0.824-0.261-1.701,0.194-1.963,1.017c-1.087,3.426,1.486,6.915,5.06,6.915c2.927,0,5.308-2.382,5.308-5.308
		C16.171,88.176,14.91,86.261,12.958,85.421z"/>
	<linearGradient id="SVGID_3_" gradientUnits="userSpaceOnUse" x1="16.0254" y1="33.2524" x2="90.2852" y2="33.2524">
		<stop  offset="0" style="stop-color:#F1B018"/>
		<stop  offset="1" style="stop-color:#B3312A"/>
	</linearGradient>
	<path fill="url(#SVGID_3_)" d="M18.051,40.036c0.847-0.171,1.393-0.997,1.221-1.843c-0.751-3.708,2.097-7.143,5.834-7.143
		c0.864,0,1.563-0.7,1.563-1.563v-3.945c0-1.581,1.287-2.867,2.867-2.867h3.957c0.864,0,1.563-0.7,1.563-1.563
		c0-0.011,0-0.021,0-0.032c0.013-3.273,2.679-5.932,5.954-5.932c3.278,0,5.946,2.663,5.954,5.94v0.023
		c0,0.862,0.7,1.563,1.563,1.563h3.956c1.583,0,2.87,1.286,2.87,2.867v2.516c-2.662,0.461-5.104,2.129-6.466,4.7
		c-0.027,0.052-0.051,0.104-0.072,0.157c-0.623,1.23-0.977,2.619-0.977,4.089c0,1.02,0.17,1.999,0.481,2.914
		c0.013,0.053,0.028,0.105,0.047,0.157c1.115,3.104,3.853,5.327,6.986,5.874v2.539c0,1.582-1.287,2.869-2.87,2.869h-2.525
		c-0.737-4.271-4.468-7.531-8.947-7.531c-4.475,0-8.204,3.255-8.945,7.531h-2.528c-1.581,0-2.867-1.287-2.867-2.869v-3.968
		c0-0.862-0.7-1.563-1.563-1.563c-1.078,0-2.133-0.291-3.051-0.841c-0.741-0.443-1.701-0.203-2.145,0.538
		c-0.443,0.74-0.203,1.701,0.539,2.145c0.954,0.571,2.003,0.959,3.094,1.149v2.539c0,3.306,2.689,5.995,5.994,5.995h3.957
		c0.863,0,1.563-0.714,1.563-1.576c0-3.283,2.671-5.954,5.954-5.954c3.282,0,5.953,2.671,5.953,5.968
		c0,0.862,0.699,1.563,1.563,1.563h3.957c1.754,0,3.334-0.758,4.432-1.962c1.098,1.204,2.677,1.962,4.43,1.962h3.957
		c0.864,0,1.563-0.714,1.563-1.576c0-3.283,2.671-5.954,5.954-5.954s5.955,2.671,5.955,5.968c0,0.862,0.698,1.563,1.563,1.563h3.957
		c3.305,0,5.992-2.689,5.992-5.995v-3.967c0-0.863-0.701-1.563-1.564-1.563c-3.283,0-5.954-2.672-5.954-5.955
		s2.671-5.954,5.954-5.954h0.002c0.863,0,1.563-0.7,1.563-1.563v-3.944c0-3.305-2.688-5.993-5.992-5.993h-3.957
		c-0.863,0-1.563,0.698-1.563,1.562c-0.005,3.278-2.676,5.945-5.955,5.945c-3.278,0-5.949-2.667-5.954-5.946
		c-0.001-0.862-0.7-1.561-1.563-1.561h-3.955c-1.754,0-3.334,0.757-4.431,1.961c-1.098-1.204-2.678-1.961-4.432-1.961h-2.526
		c-0.739-4.27-4.469-7.527-8.947-7.527c-4.478,0-8.208,3.258-8.947,7.527h-2.526c-3.305,0-5.993,2.688-5.993,5.993v2.517
		c-5.003,0.873-8.355,5.729-7.335,10.756C16.378,39.652,17.195,40.209,18.051,40.036z M56.915,31.051c0.863,0,1.563-0.7,1.563-1.563
		v-3.945c0-1.581,1.286-2.867,2.868-2.867h2.529c0.748,4.259,4.477,7.507,8.944,7.507c4.469,0,8.196-3.248,8.943-7.507h2.53
		c1.582,0,2.867,1.286,2.867,2.867v2.516c-4.266,0.743-7.519,4.472-7.519,8.946c0,4.474,3.253,8.203,7.519,8.945v2.539
		c0,1.582-1.285,2.869-2.867,2.869h-2.525c-0.738-4.271-4.469-7.531-8.948-7.531c-4.476,0-8.205,3.255-8.946,7.531h-2.527
		c-1.582,0-2.868-1.287-2.868-2.869c0-2.407,0-1.441,0-3.968c0-0.822-0.646-1.56-1.588-1.563c-1.237-0.005-2.499-0.399-3.578-1.22
		C48.799,38.293,51.229,31.051,56.915,31.051z"/>
	<linearGradient id="SVGID_4_" gradientUnits="userSpaceOnUse" x1="51.5938" y1="63.4873" x2="54.7207" y2="63.4873">
		<stop  offset="0" style="stop-color:#F1B018"/>
		<stop  offset="1" style="stop-color:#B3312A"/>
	</linearGradient>
	<path fill="url(#SVGID_4_)" d="M51.594,61.49v3.995c0,0.862,0.7,1.563,1.563,1.563c0.864,0,1.564-0.7,1.564-1.563V61.49
		c0-0.863-0.7-1.563-1.564-1.563C52.294,59.927,51.594,60.627,51.594,61.49z"/>
	<linearGradient id="SVGID_5_" gradientUnits="userSpaceOnUse" x1="51.5938" y1="3.5605" x2="54.7207" y2="3.5605">
		<stop  offset="0" style="stop-color:#F1B018"/>
		<stop  offset="1" style="stop-color:#B3312A"/>
	</linearGradient>
	<path fill="url(#SVGID_5_)" d="M53.157,7.121c0.864,0,1.564-0.699,1.564-1.563V1.563C54.721,0.7,54.021,0,53.157,0
		c-0.863,0-1.563,0.7-1.563,1.563v3.995C51.594,6.422,52.294,7.121,53.157,7.121z"/>
	<linearGradient id="SVGID_6_" gradientUnits="userSpaceOnUse" x1="5.415" y1="28.1523" x2="12.5371" y2="28.1523">
		<stop  offset="0" style="stop-color:#F1B018"/>
		<stop  offset="1" style="stop-color:#B3312A"/>
	</linearGradient>
	<path fill="url(#SVGID_6_)" d="M6.979,29.716h3.995c0.863,0,1.563-0.7,1.563-1.563s-0.7-1.563-1.563-1.563H6.979
		c-0.864,0-1.563,0.7-1.563,1.563S6.115,29.716,6.979,29.716z"/>
	<linearGradient id="SVGID_7_" gradientUnits="userSpaceOnUse" x1="18.875" y1="7.8608" x2="25.062" y2="7.8608">
		<stop  offset="0" style="stop-color:#F1B018"/>
		<stop  offset="1" style="stop-color:#B3312A"/>
	</linearGradient>
	<path fill="url(#SVGID_7_)" d="M19.434,7.773c2.914,2.306,3.099,2.935,4.064,2.935c1.454,0,2.121-1.825,1.005-2.761L21.443,5.38
		c-0.662-0.556-1.647-0.469-2.203,0.192C18.686,6.233,18.772,7.219,19.434,7.773z"/>
	<linearGradient id="SVGID_8_" gradientUnits="userSpaceOnUse" x1="9.7095" y1="51.2705" x2="16.5439" y2="51.2705">
		<stop  offset="0" style="stop-color:#F1B018"/>
		<stop  offset="1" style="stop-color:#B3312A"/>
	</linearGradient>
	<path fill="url(#SVGID_8_)" d="M11.269,53.572c0.522,0,0.509-0.123,4.29-1.588c0.802-0.319,1.193-1.229,0.874-2.03
		c-0.318-0.802-1.228-1.192-2.029-0.874l-3.712,1.476C9.1,51.188,9.551,53.572,11.269,53.572z"/>
	<linearGradient id="SVGID_9_" gradientUnits="userSpaceOnUse" x1="96.5078" y1="30.2241" x2="103.6289" y2="30.2241">
		<stop  offset="0" style="stop-color:#F1B018"/>
		<stop  offset="1" style="stop-color:#B3312A"/>
	</linearGradient>
	<path fill="url(#SVGID_9_)" d="M98.07,31.787h3.995c0.864,0,1.563-0.699,1.563-1.563s-0.699-1.563-1.563-1.563H98.07
		c-0.863,0-1.563,0.7-1.563,1.563S97.207,31.787,98.07,31.787z"/>
	<linearGradient id="SVGID_10_" gradientUnits="userSpaceOnUse" x1="90.2344" y1="59.999" x2="96.4219" y2="59.999">
		<stop  offset="0" style="stop-color:#F1B018"/>
		<stop  offset="1" style="stop-color:#B3312A"/>
	</linearGradient>
	<path fill="url(#SVGID_10_)" d="M90.793,59.911l3.061,2.568c0.664,0.558,1.649,0.466,2.202-0.192
		c0.555-0.661,0.469-1.647-0.192-2.202l-3.062-2.568c-0.661-0.555-1.647-0.469-2.202,0.192S90.131,59.356,90.793,59.911z"/>
	<linearGradient id="SVGID_11_" gradientUnits="userSpaceOnUse" x1="79.0283" y1="6.8984" x2="85.3018" y2="6.8984">
		<stop  offset="0" style="stop-color:#F1B018"/>
		<stop  offset="1" style="stop-color:#B3312A"/>
	</linearGradient>
	<path fill="url(#SVGID_11_)" d="M81.554,9.36l3.147-2.461c0.681-0.532,0.801-1.514,0.27-2.193c-0.532-0.681-1.514-0.801-2.194-0.27
		l-3.147,2.461c-0.68,0.531-0.801,1.513-0.269,2.193C79.893,9.773,80.875,9.891,81.554,9.36z"/>
</g>
</svg>
