<?xml version="1.0" encoding="utf-8"?>
<!-- Generator: Adobe Illustrator 16.0.0, SVG Export Plug-In . SVG Version: 6.00 Build 0)  -->
<!DOCTYPE svg PUBLIC "-//W3C//DTD SVG 1.1//EN" "http://www.w3.org/Graphics/SVG/1.1/DTD/svg11.dtd">
<svg version="1.1" id="Capa_1" xmlns="http://www.w3.org/2000/svg" xmlns:xlink="http://www.w3.org/1999/xlink" x="0px" y="0px"
	 width="77.549px" height="145.98px" viewBox="0 0 77.549 145.98" enable-background="new 0 0 77.549 145.98" xml:space="preserve">
<g id="Layer_x0020_1_3_">
	<linearGradient id="SVGID_1_" gradientUnits="userSpaceOnUse" x1="-92.9995" y1="-22.6914" x2="86.002" y2="107.3098">
		<stop  offset="0" style="stop-color:#F1B018"/>
		<stop  offset="1" style="stop-color:#B3312A"/>
	</linearGradient>
	<path fill="url(#SVGID_1_)" d="M74.819,2.81c0.876,0.9,0.876,2.333-0.026,3.206 M43.44,138.48c-0.902,0.742-2.229,0.69-3.049-0.158
		 M9.355,0.026H68.22c2.571,0,4.904,1.061,6.6,2.757l0,0l0,0V2.81c1.695,1.695,2.729,4.028,2.729,6.573v13.463v0.106v36.629v0.052
		v0.053v54.358v0.054v0.054v8.931v0.053v0.054v13.465c0,2.569-1.061,4.929-2.756,6.598c-1.696,1.695-4.029,2.729-6.601,2.729H9.329
		c-2.571,0-4.904-1.061-6.6-2.729l0,0C1.034,141.556,0,139.223,0,136.653v-13.465v-0.054v-0.053V22.926V22.82V9.355
		c0-2.57,1.061-4.931,2.729-6.6C4.425,1.061,6.758,0,9.329,0L9.355,0.026z M73.017,62.126c-2.279,0.45-4.293,1.535-5.857,3.072
		c-2.039,2.015-3.313,4.824-3.313,8.006c0,3.126,1.274,5.936,3.313,7.977c1.564,1.564,3.578,2.677,5.857,3.102V62.099V62.126z
		 M73.017,88.919c-3.524-0.477-6.68-2.118-9.091-4.505c-2.86-2.863-4.639-6.838-4.639-11.21c0-4.428,1.778-8.378,4.665-11.239
		c2.385-2.357,5.54-3.975,9.064-4.451V34.242L68.22,34.27l-1.326,11.608l0,0c-0.104,0.793-0.608,1.537-1.403,1.854l-0.61,0.241
		l-0.105,0.051l-0.769,0.318l0,0c-0.718,0.292-1.563,0.238-2.228-0.238l-9.327-6.784l-9.172,9.171l6.707,9.249
		c0.504,0.635,0.662,1.511,0.316,2.333l-0.316,0.767l-0.268,0.718l0,0c-0.289,0.715-0.927,1.296-1.773,1.403l-11.372,1.803V79.75
		l11.372,1.801c0.767,0.134,1.457,0.637,1.773,1.404l0.268,0.663l0.026,0.054l0.316,0.769c0.292,0.716,0.239,1.563-0.238,2.227
		l-6.784,9.329l9.171,9.169l9.249-6.705c0.635-0.503,1.511-0.661,2.333-0.318l0.767,0.318l0,0l0.584,0.239
		c0.822,0.265,1.457,1.007,1.563,1.907l1.326,11.292h4.824V88.973L73.017,88.919z M73.017,116.404h-6.838
		c-1.219,0-2.227-0.954-2.279-2.176l-1.272-10.918l-9.115,6.627c-0.93,0.662-2.175,0.555-2.943-0.24l0,0L38.641,97.771
		c-0.847-0.849-0.873-2.174-0.132-3.074l6.573-9.064l-11.21-1.775c-1.113-0.186-1.936-1.139-1.936-2.253l0,0V64.748
		c0-1.219,0.955-2.199,2.146-2.279l11-1.723l-6.678-9.195c-0.664-0.93-0.557-2.175,0.236-2.943l0,0L50.568,36.68
		c0.849-0.847,2.172-0.873,3.074-0.131l8.96,6.52l1.297-11.344c0.134-1.219,1.221-2.095,2.41-2.015l6.681-0.053v-4.506H4.559v95.704
		H72.99v-4.479L73.017,116.404z M73.017,125.441H4.585v11.238c0,1.324,0.53,2.519,1.404,3.392l0,0
		c0.873,0.873,2.067,1.403,3.391,1.403h58.866c1.326,0,2.518-0.53,3.367-1.403c0.873-0.873,1.403-2.067,1.403-3.392V125.441z
		 M4.585,20.593h68.432V9.355c0-1.325-0.53-2.518-1.403-3.366l0,0c-0.85-0.847-2.068-1.403-3.367-1.403H9.38
		c-1.323,0-2.518,0.53-3.391,1.403C5.115,6.865,4.585,8.057,4.585,9.355V20.593z M28.543,15.98c-1.243,0-2.277-1.034-2.277-2.277
		c0-1.248,1.034-2.281,2.277-2.281h19.639c1.248,0,2.281,1.033,2.281,2.281c0,1.243-1.033,2.277-2.281,2.277H28.543z
		 M38.801,126.633c1.881,0,3.605,0.77,4.849,2.015c1.248,1.245,2.015,2.943,2.015,4.851c0,1.881-0.767,3.605-2.015,4.851
		l-0.158,0.158c-1.219,1.142-2.863,1.856-4.663,1.856c-1.883,0-3.579-0.769-4.824-2.015l0,0c-1.245-1.245-2.015-2.943-2.015-4.823
		c0-1.881,0.77-3.605,2.015-4.824l0,0c1.245-1.246,2.941-2.015,4.851-2.015L38.801,126.633z M40.419,131.854
		c-0.399-0.396-0.98-0.661-1.618-0.661c-0.637,0-1.194,0.265-1.617,0.661l0,0l0,0c-0.396,0.399-0.662,0.98-0.662,1.618
		c0,0.637,0.266,1.219,0.662,1.617l0,0c0.396,0.396,0.98,0.662,1.617,0.662c0.584,0,1.142-0.212,1.538-0.582l0.08-0.08
		c0.396-0.398,0.661-0.98,0.661-1.617C41.08,132.834,40.815,132.279,40.419,131.854z"/>
</g>
</svg>
