<?xml version="1.0" encoding="utf-8"?>
<!-- Generator: Adobe Illustrator 16.0.0, SVG Export Plug-In . SVG Version: 6.00 Build 0)  -->
<!DOCTYPE svg PUBLIC "-//W3C//DTD SVG 1.1//EN" "http://www.w3.org/Graphics/SVG/1.1/DTD/svg11.dtd">
<svg version="1.1" xmlns="http://www.w3.org/2000/svg" xmlns:xlink="http://www.w3.org/1999/xlink" x="0px" y="0px"
	 width="276.018px" height="250.663px" viewBox="0 0 276.018 250.663" enable-background="new 0 0 276.018 250.663"
	 xml:space="preserve">
<g id="fondo_azul" display="none">
	<g id="Fondo" display="inline">
		<linearGradient id="SVGID_1_" gradientUnits="userSpaceOnUse" x1="138.0088" y1="95.8315" x2="138.0088" y2="286.0655">
			<stop  offset="0" style="stop-color:#426AA8"/>
			<stop  offset="1" style="stop-color:#2E486F"/>
		</linearGradient>
		<rect fill="url(#SVGID_1_)" width="276.018" height="250.663"/>
	</g>
	<g id="Contorno_Nube" display="inline">
		<path fill="none" stroke="#FFFFFF" stroke-width="39" stroke-miterlimit="10" d="M119.866,78.465
			c0-16.716,13.551-30.268,30.268-30.268c16.716,0,30.267,13.552,30.267,30.268c16.716,0,30.267,13.551,30.267,30.267
			c0,16.717-13.551,30.268-30.267,30.268h-60.535c0,0-11.847-10.499-11.847-31.166S119.866,78.465,119.866,78.465z"/>
		<path fill="none" stroke="#FFFFFF" stroke-width="39" stroke-miterlimit="10" d="M125.865,92.435
			c0.341,2.187,2.069,6.481,3.653,8.065s5.903,1.763,7.667,0.974c5.551-2.483,22.499-20.603,22.499,9.244
			c0,29.846-16.532,11.713-22.499,10.142c-2.071-0.545-5.501,1.14-7.501,4.14s-3.819,10.372-3.819,14H79.3
			c-12.858,0-23.282-10.424-23.282-23.283c0-12.858,10.424-23.282,23.282-23.282c0-12.858,10.424-23.282,23.282-23.282
			C115.441,69.152,123.886,79.729,125.865,92.435z"/>
	</g>
	<g id="Resaltado_Nube" display="inline">
		<path fill="none" stroke="#25262F" stroke-width="21" stroke-miterlimit="10" d="M119.866,78.465
			c0-16.716,13.551-30.268,30.268-30.268c16.716,0,30.267,13.552,30.267,30.268c16.716,0,30.267,13.551,30.267,30.267
			c0,16.717-13.551,30.268-30.267,30.268h-60.535c0,0-11.847-10.499-11.847-31.166S119.866,78.465,119.866,78.465z"/>
		<g>
			<path fill="none" stroke="#25262F" stroke-width="21" stroke-miterlimit="10" d="M125.865,92.435
				c0.341,2.187,2.069,6.481,3.653,8.065s5.903,1.763,7.667,0.974c5.551-2.483,22.499-20.603,22.499,9.244
				c0,29.846-16.532,11.713-22.499,10.142c-2.071-0.545-5.501,1.14-7.501,4.14s-3.819,10.372-3.819,14H79.3
				c-12.858,0-23.282-10.424-23.282-23.283c0-12.858,10.424-23.282,23.282-23.282c0-12.858,10.424-23.282,23.282-23.282
				C115.441,69.152,123.886,79.729,125.865,92.435z"/>
		</g>
	</g>
	<g id="Colores_Nube" display="inline">
		<path fill="#CA4733" d="M119.866,78.465c0-16.716,13.551-30.268,30.268-30.268c16.716,0,30.267,13.552,30.267,30.268
			c16.716,0,30.267,13.551,30.267,30.267c0,16.717-13.551,30.268-30.267,30.268h-60.535c0,0-11.847-10.499-11.847-31.166
			S119.866,78.465,119.866,78.465z"/>
		<g>
			<path fill="#EBBA2D" d="M125.865,92.435c0.341,2.187,2.069,6.481,3.653,8.065s5.903,1.763,7.667,0.974
				c5.551-2.483,22.499-20.603,22.499,9.244c0,29.846-16.532,11.713-22.499,10.142c-2.071-0.545-5.501,1.14-7.501,4.14
				s-3.819,10.372-3.819,14H79.3c-12.858,0-23.282-10.424-23.282-23.283c0-12.858,10.424-23.282,23.282-23.282
				c0-12.858,10.424-23.282,23.282-23.282C115.441,69.152,123.886,79.729,125.865,92.435z"/>
		</g>
	</g>
	<g id="Tipografía" display="inline">
		<g>
			<g>
				<g>
					<path fill="#4DA9B1" d="M48.339,166.422c0,0.55,0.322,0.686,0.715,0.301c0,0,2.658-2.597,4.519-3.526
						c1.861-0.932,3.8-1.396,5.816-1.396c8.375,0,12.562,4.575,12.562,13.726v23.232c0,0.55-0.45,1-1,1h-4.63c-0.55,0-1-0.45-1-1
						v-21.922c0-0.55-0.021-1.449-0.046-1.999c0,0-0.084-1.832-0.342-2.918c-0.259-1.085-0.666-1.971-1.221-2.655
						c-0.556-0.685-1.267-1.183-2.133-1.493c-0.866-0.31-1.906-0.465-3.121-0.465c-3.36,0-6.733,1.965-10.12,5.894v25.559
						c0,0.55-0.45,1-1,1h-4.552c-0.55,0-1-0.45-1-1v-35.027c0-0.55,0.45-1,1-1h4.552c0.55,0,1,0.45,1,1V166.422z"/>
					<path fill="#FFFFFF" d="M70.951,211.758h-4.63c-3.741,0-7.117-1.588-9.491-4.125c-2.374,2.537-5.75,4.125-9.491,4.125h-4.552
						c-7.168,0-13-5.832-13-13v-35.027c0-7.168,5.832-13,13-13h4.552c1.275,0,2.509,0.185,3.674,0.528
						c2.693-0.969,5.5-1.459,8.376-1.459c15.15,0,24.562,9.857,24.562,25.726v23.232C83.951,205.926,78.12,211.758,70.951,211.758z"
						/>
				</g>
				<g>
					<path fill="#4DA9B1" d="M105.063,196.067c0-0.55-0.352-0.72-0.783-0.378c0,0-6.235,4.961-10.345,4.961
						c-8.375,0-12.562-4.562-12.562-13.687v-23.232c0-0.55,0.45-1,1-1h4.669c0.55,0,1,0.45,1,1v21.884
						c0,0.55,0.02,1.449,0.045,1.999c0,0,0.084,1.864,0.343,2.937c0.258,1.072,0.665,1.951,1.221,2.636
						c0.556,0.686,1.266,1.183,2.132,1.493c0.866,0.311,1.906,0.465,3.121,0.465c3.696,0,7.082-1.977,10.159-5.932v-25.481
						c0-0.55,0.45-1,1-1h4.552c0.55,0,1,0.45,1,1v35.027c0,0.55-0.45,1-1,1h-4.552c-0.55,0-1-0.45-1-1V196.067z"/>
					<path fill="#FFFFFF" d="M93.935,212.65c-15.15,0-24.562-9.843-24.562-25.687v-23.232c0-7.168,5.832-13,13-13h4.669
						c3.751,0,7.136,1.597,9.511,4.146c2.375-2.549,5.759-4.146,9.51-4.146h4.552c7.168,0,13,5.832,13,13v35.027
						c0,7.168-5.832,13-13,13h-4.552c-1.522,0-2.984-0.263-4.343-0.746C99.267,211.979,96.603,212.65,93.935,212.65z"/>
				</g>
				<g>
					<path fill="#4DA9B1" d="M151.395,212.988c0,0.55-0.45,1-1,1h-4.552c-0.55,0-1-0.45-1-1v-16.61c0-0.55-0.35-0.717-0.778-0.372
						c0,0-5.75,4.645-9.807,4.645c-2.481,0-4.672-0.459-6.572-1.376s-3.503-2.21-4.808-3.878c-1.306-1.667-2.288-3.676-2.947-6.028
						c-0.659-2.352-0.989-4.963-0.989-7.832c0-3.05,0.4-5.797,1.202-8.239s1.906-4.518,3.315-6.223
						c1.408-1.706,3.063-3.012,4.962-3.916c1.9-0.904,3.961-1.357,6.185-1.357c2.016,0,3.87,0.316,5.563,0.95
						c1.693,0.634,3.25,1.57,4.672,2.812v-1.831c0-0.55,0.45-1,1-1h4.552c0.55,0,1,0.45,1,1V212.988z M144.843,189.057v-16.563
						c0-0.55-0.365-1.264-0.81-1.586c0,0-5.407-3.912-9-3.912c-2.817,0-5.066,1.209-6.746,3.625
						c-1.681,2.418-2.521,6.056-2.521,10.915c0,4.575,0.795,8.039,2.385,10.391c1.589,2.353,3.793,3.528,6.61,3.528
						c1.835,0,3.593-0.523,5.273-1.57S143.317,191.228,144.843,189.057z"/>
					<path fill="#FFFFFF" d="M150.395,225.988h-4.552c-7.168,0-13-5.832-13-13v-0.37c-3.749-0.17-7.233-1.021-10.373-2.537
						c-3.56-1.718-6.603-4.171-9.043-7.291c-2.267-2.896-3.968-6.324-5.05-10.185c-0.951-3.394-1.434-7.118-1.434-11.069
						c0-4.31,0.605-8.34,1.799-11.979c1.268-3.863,3.107-7.271,5.468-10.127c2.521-3.055,5.569-5.447,9.054-7.106
						c3.517-1.674,7.333-2.522,11.343-2.522c2.936,0,5.754,0.417,8.4,1.242c0.913-0.204,1.862-0.312,2.836-0.312h4.552
						c7.168,0,13,5.832,13,13v49.257C163.395,220.156,157.563,225.988,150.395,225.988z"/>
				</g>
				<g>
					<path fill="#4DA9B1" d="M184.623,196.067c0-0.55-0.352-0.72-0.783-0.378c0,0-6.235,4.961-10.345,4.961
						c-8.375,0-12.562-4.562-12.562-13.687v-23.232c0-0.55,0.45-1,1-1h4.669c0.55,0,1,0.45,1,1v21.884
						c0,0.55,0.02,1.449,0.045,1.999c0,0,0.084,1.864,0.343,2.937c0.258,1.072,0.665,1.951,1.221,2.636
						c0.556,0.686,1.266,1.183,2.132,1.493c0.866,0.311,1.906,0.465,3.121,0.465c3.696,0,7.082-1.977,10.159-5.932v-25.481
						c0-0.55,0.45-1,1-1h4.552c0.55,0,1,0.45,1,1v35.027c0,0.55-0.45,1-1,1h-4.552c-0.55,0-1-0.45-1-1V196.067z"/>
					<path fill="#FFFFFF" d="M173.495,212.65c-15.15,0-24.562-9.843-24.562-25.687v-23.232c0-7.168,5.832-13,13-13h4.669
						c3.751,0,7.136,1.597,9.511,4.146c2.375-2.549,5.759-4.146,9.51-4.146h4.552c7.168,0,13,5.832,13,13v35.027
						c0,7.168-5.832,13-13,13h-4.552c-1.522,0-2.984-0.263-4.343-0.746C178.827,211.979,176.163,212.65,173.495,212.65z"/>
				</g>
				<g>
					<path fill="#4DA9B1" d="M216.609,200.65c-2.688,0-5.144-0.433-7.367-1.299c-2.223-0.865-4.129-2.133-5.719-3.8
						c-1.59-1.667-2.824-3.702-3.703-6.106c-0.879-2.403-1.318-5.144-1.318-8.22c0-3.024,0.426-5.731,1.279-8.122
						s2.042-4.427,3.567-6.107c1.524-1.68,3.36-2.966,5.505-3.857c2.145-0.892,4.498-1.338,7.057-1.338
						c2.662,0,5.066,0.439,7.211,1.318c2.145,0.879,3.974,2.152,5.486,3.819s2.675,3.702,3.489,6.106
						c0.814,2.404,1.222,5.131,1.222,8.181v0.59c0,0.55-0.45,1-1,1h-25.916c-0.55,0-0.94,0.446-0.867,0.991
						c0,0,0.403,3.016,1.011,4.592c0.607,1.577,1.409,2.889,2.404,3.936c0.995,1.047,2.138,1.829,3.431,2.346
						c1.292,0.518,2.701,0.775,4.226,0.775c1.085,0,2.171-0.148,3.257-0.446c1.085-0.297,2.061-0.729,2.927-1.299
						c0.866-0.567,1.57-1.272,2.113-2.112c0.542-0.84,0.827-1.804,0.853-2.889h5.901c0.55,0,0.893,0.438,0.762,0.972
						c0,0-0.647,2.641-1.565,4.127s-2.081,2.733-3.489,3.741c-1.409,1.008-3.031,1.777-4.866,2.307
						C220.667,200.384,218.703,200.65,216.609,200.65z M225.341,177.62c0.55,0,0.879-0.434,0.732-0.964c0,0-1.445-5.201-3.319-6.984
						c-1.875-1.783-4.155-2.676-6.843-2.676c-1.318,0-2.559,0.221-3.722,0.66s-2.197,1.098-3.102,1.977
						c-0.905,0.879-1.667,1.984-2.288,3.315c-0.621,1.331-1.061,2.889-1.318,4.672H225.341z"/>
					<path fill="#FFFFFF" d="M216.609,212.65c-4.173,0-8.118-0.713-11.724-2.118c-3.858-1.501-7.24-3.756-10.046-6.7
						c-2.729-2.86-4.845-6.316-6.289-10.269c-1.357-3.711-2.047-7.863-2.047-12.338c0-4.389,0.665-8.478,1.977-12.155
						c1.385-3.879,3.398-7.291,5.985-10.141c2.713-2.988,6.005-5.302,9.785-6.872c3.603-1.497,7.526-2.257,11.662-2.257
						c4.217,0,8.174,0.745,11.76,2.214c3.804,1.559,7.109,3.867,9.825,6.861c2.619,2.887,4.626,6.359,5.968,10.321
						c1.231,3.633,1.855,7.681,1.855,12.028v0.59c0,1.854-0.391,3.62-1.093,5.218c0.345,1.794,0.302,3.669-0.151,5.513
						c-0.328,1.339-1.282,4.771-3.007,7.565c-1.753,2.841-4.014,5.263-6.718,7.197c-2.518,1.801-5.384,3.172-8.522,4.077
						C222.917,212.224,219.815,212.65,216.609,212.65z"/>
				</g>
			</g>
		</g>
		<g>
			<g>
				<g>
					<path fill="#4DA9B1" d="M48.339,167.422c1.629-1.886,3.374-3.296,5.234-4.226c1.861-0.932,3.8-1.396,5.816-1.396
						c8.375,0,12.562,4.575,12.562,13.726v24.232h-6.63v-23.922c0-1.525-0.13-2.831-0.388-3.917
						c-0.259-1.085-0.666-1.971-1.221-2.655c-0.556-0.685-1.267-1.183-2.133-1.493c-0.866-0.31-1.906-0.465-3.121-0.465
						c-3.36,0-6.733,1.965-10.12,5.894v26.559h-6.552v-37.027h6.552V167.422z"/>
					<path fill="#4DA9B1" d="M73.451,201.258h-9.63v-25.422c0-1.399-0.117-2.601-0.347-3.57c-0.205-0.859-0.517-1.552-0.927-2.057
						c-0.383-0.473-0.866-0.809-1.474-1.026c-0.699-0.25-1.579-0.377-2.615-0.377c-2.774,0-5.672,1.668-8.62,4.959v27.493h-9.552
						v-40.027h9.552v2.627c0.987-0.807,2.01-1.477,3.064-2.003c2.061-1.031,4.243-1.555,6.486-1.555
						c9.199,0,14.062,5.265,14.062,15.226V201.258z M66.821,198.258h3.63v-22.732c0-8.341-3.515-12.226-11.062-12.226
						c-1.772,0-3.503,0.416-5.145,1.238c-1.672,0.835-3.277,2.135-4.771,3.864l-2.635,3.051v-7.223h-3.552v34.027h3.552v-25.616
						l0.364-0.422c3.668-4.256,7.456-6.414,11.256-6.414c1.38,0,2.601,0.186,3.626,0.553c1.124,0.403,2.063,1.063,2.792,1.959
						c0.696,0.858,1.206,1.953,1.516,3.254c0.285,1.198,0.429,2.633,0.429,4.265V198.258z"/>
				</g>
				<g>
					<path fill="#4DA9B1" d="M105.063,195.067c-3.309,3.722-7.018,5.583-11.128,5.583c-8.375,0-12.562-4.562-12.562-13.687v-24.232
						h6.669v23.884c0,1.551,0.129,2.863,0.388,3.936c0.258,1.072,0.665,1.951,1.221,2.636c0.556,0.686,1.266,1.183,2.132,1.493
						c0.866,0.311,1.906,0.465,3.121,0.465c3.696,0,7.082-1.977,10.159-5.932v-26.481h6.552v37.027h-6.552V195.067z"/>
					<path fill="#4DA9B1" d="M93.935,202.15c-9.199,0-14.062-5.251-14.062-15.187v-25.732h9.669v25.384
						c0,1.427,0.116,2.633,0.346,3.584c0.204,0.849,0.516,1.535,0.927,2.041c0.384,0.474,0.866,0.81,1.475,1.027
						c0.697,0.25,1.577,0.377,2.615,0.377c3.116,0,5.952-1.622,8.659-4.955v-27.458h9.552v40.027h-9.552v-2.676
						C100.631,200.953,97.404,202.15,93.935,202.15z M82.873,164.231v22.732c0,8.314,3.515,12.187,11.062,12.187
						c3.694,0,6.968-1.661,10.007-5.08l2.621-2.947v7.136h3.552v-34.027h-3.552v25.496l-0.316,0.406
						c-3.361,4.32-7.177,6.511-11.343,6.511c-1.384,0-2.604-0.186-3.627-0.553c-1.125-0.403-2.063-1.063-2.792-1.961
						c-0.695-0.855-1.205-1.942-1.514-3.229c-0.285-1.18-0.429-2.622-0.429-4.286v-22.384H82.873z"/>
				</g>
				<g>
					<path fill="#4DA9B1" d="M151.395,213.988h-6.552v-18.61c-2.999,3.516-6.527,5.272-10.585,5.272
						c-2.481,0-4.672-0.459-6.572-1.376s-3.503-2.21-4.808-3.878c-1.306-1.667-2.288-3.676-2.947-6.028
						c-0.659-2.352-0.989-4.963-0.989-7.832c0-3.05,0.4-5.797,1.202-8.239s1.906-4.518,3.315-6.223
						c1.408-1.706,3.063-3.012,4.962-3.916c1.9-0.904,3.961-1.357,6.185-1.357c2.016,0,3.87,0.316,5.563,0.95
						c1.693,0.634,3.25,1.57,4.672,2.812v-2.831h6.552V213.988z M144.843,189.057v-17.563c-2.947-2.998-6.217-4.498-9.81-4.498
						c-2.817,0-5.066,1.209-6.746,3.625c-1.681,2.418-2.521,6.056-2.521,10.915c0,4.575,0.795,8.039,2.385,10.391
						c1.589,2.353,3.793,3.528,6.61,3.528c1.835,0,3.593-0.523,5.273-1.57S143.317,191.228,144.843,189.057z"/>
					<path fill="#4DA9B1" d="M152.895,215.488h-9.552v-16.563c-2.691,2.143-5.735,3.225-9.085,3.225
						c-2.697,0-5.127-0.513-7.224-1.525c-2.1-1.014-3.896-2.462-5.337-4.305c-1.42-1.813-2.5-4.017-3.209-6.548
						c-0.693-2.472-1.044-5.243-1.044-8.236c0-3.195,0.43-6.125,1.276-8.707c0.857-2.611,2.063-4.869,3.584-6.711
						c1.542-1.867,3.383-3.319,5.474-4.314c2.096-0.997,4.394-1.503,6.83-1.503c2.187,0,4.236,0.352,6.089,1.045
						c0.916,0.343,1.799,0.77,2.646,1.276v-1.391h9.552V215.488z M146.343,212.488h3.552v-48.257h-3.552v4.632l-2.486-2.171
						c-1.278-1.115-2.695-1.969-4.212-2.537c-1.516-0.566-3.21-0.854-5.038-0.854c-1.987,0-3.851,0.408-5.54,1.212
						c-1.691,0.806-3.189,1.988-4.45,3.517c-1.282,1.552-2.308,3.481-3.047,5.735c-0.748,2.279-1.127,4.894-1.127,7.771
						c0,2.72,0.314,5.219,0.933,7.427c0.603,2.151,1.506,4.005,2.683,5.509c1.157,1.479,2.596,2.64,4.279,3.452
						c1.687,0.813,3.679,1.227,5.92,1.227c3.63,0,6.72-1.553,9.444-4.746l2.641-3.096V212.488z M134.762,196.955
						c-3.333,0-5.976-1.409-7.854-4.188c-1.777-2.63-2.642-6.303-2.642-11.23c0-5.221,0.912-9.071,2.789-11.771
						c1.97-2.832,4.654-4.269,7.978-4.269c3.993,0,7.653,1.664,10.879,4.946l0.43,0.438v18.651l-0.273,0.388
						c-1.636,2.328-3.399,4.09-5.242,5.238C138.914,196.35,136.873,196.955,134.762,196.955z M135.033,168.496
						c-2.316,0-4.12,0.976-5.515,2.981c-1.494,2.149-2.252,5.534-2.252,10.059c0,4.249,0.716,7.463,2.127,9.551
						c1.304,1.93,3.06,2.868,5.368,2.868c1.563,0,3.029-0.439,4.479-1.344c1.402-0.873,2.781-2.229,4.102-4.036v-16.454
						C140.789,169.683,138.065,168.496,135.033,168.496z"/>
				</g>
				<g>
					<path fill="#4DA9B1" d="M184.623,195.067c-3.309,3.722-7.018,5.583-11.128,5.583c-8.375,0-12.562-4.562-12.562-13.687v-24.232
						h6.669v23.884c0,1.551,0.129,2.863,0.388,3.936c0.258,1.072,0.665,1.951,1.221,2.636c0.556,0.686,1.266,1.183,2.132,1.493
						c0.866,0.311,1.906,0.465,3.121,0.465c3.696,0,7.082-1.977,10.159-5.932v-26.481h6.552v37.027h-6.552V195.067z"/>
					<path fill="#4DA9B1" d="M173.495,202.15c-9.199,0-14.062-5.251-14.062-15.187v-25.732h9.669v25.384
						c0,1.427,0.116,2.633,0.346,3.584c0.204,0.849,0.516,1.535,0.927,2.041c0.384,0.474,0.866,0.81,1.475,1.027
						c0.697,0.25,1.577,0.377,2.615,0.377c3.116,0,5.952-1.622,8.659-4.955v-27.458h9.552v40.027h-9.552v-2.676
						C180.191,200.953,176.964,202.15,173.495,202.15z M162.433,164.231v22.732c0,8.314,3.515,12.187,11.062,12.187
						c3.694,0,6.968-1.661,10.007-5.08l2.621-2.947v7.136h3.552v-34.027h-3.552v25.496l-0.316,0.406
						c-3.361,4.32-7.177,6.511-11.343,6.511c-1.384,0-2.604-0.186-3.627-0.553c-1.125-0.403-2.063-1.063-2.792-1.961
						c-0.695-0.855-1.205-1.942-1.514-3.229c-0.285-1.18-0.429-2.622-0.429-4.286v-22.384H162.433z"/>
				</g>
				<g>
					<path fill="#4DA9B1" d="M216.609,200.65c-2.688,0-5.144-0.433-7.367-1.299c-2.223-0.865-4.129-2.133-5.719-3.8
						c-1.59-1.667-2.824-3.702-3.703-6.106c-0.879-2.403-1.318-5.144-1.318-8.22c0-3.024,0.426-5.731,1.279-8.122
						s2.042-4.427,3.567-6.107c1.524-1.68,3.36-2.966,5.505-3.857c2.145-0.892,4.498-1.338,7.057-1.338
						c2.662,0,5.066,0.439,7.211,1.318c2.145,0.879,3.974,2.152,5.486,3.819s2.675,3.702,3.489,6.106
						c0.814,2.404,1.222,5.131,1.222,8.181v1.59h-27.916c0.155,2.146,0.536,4.007,1.144,5.583c0.607,1.577,1.409,2.889,2.404,3.936
						c0.995,1.047,2.138,1.829,3.431,2.346c1.292,0.518,2.701,0.775,4.226,0.775c1.085,0,2.171-0.148,3.257-0.446
						c1.085-0.297,2.061-0.729,2.927-1.299c0.866-0.567,1.57-1.272,2.113-2.112c0.542-0.84,0.827-1.804,0.853-2.889h6.901
						c-0.285,1.913-0.886,3.612-1.803,5.099s-2.081,2.733-3.489,3.741c-1.409,1.008-3.031,1.777-4.866,2.307
						C220.667,200.384,218.703,200.65,216.609,200.65z M226.341,177.62c-0.518-3.515-1.713-6.165-3.586-7.948
						c-1.875-1.783-4.155-2.676-6.843-2.676c-1.318,0-2.559,0.221-3.722,0.66s-2.197,1.098-3.102,1.977
						c-0.905,0.879-1.667,1.984-2.288,3.315c-0.621,1.331-1.061,2.889-1.318,4.672H226.341z"/>
					<path fill="#4DA9B1" d="M216.609,202.15c-2.864,0-5.525-0.472-7.912-1.401c-2.417-0.94-4.523-2.341-6.259-4.162
						c-1.726-1.81-3.081-4.039-4.026-6.627c-0.936-2.556-1.41-5.494-1.41-8.734c0-3.183,0.46-6.085,1.367-8.626
						c0.917-2.568,2.218-4.793,3.87-6.611c1.667-1.837,3.699-3.262,6.04-4.234c2.319-0.964,4.887-1.453,7.632-1.453
						c2.846,0,5.463,0.481,7.78,1.431c2.343,0.96,4.372,2.373,6.028,4.199c1.645,1.813,2.923,4.045,3.799,6.633
						c0.863,2.549,1.301,5.463,1.301,8.662v3.09h-27.75c0.187,1.327,0.481,2.514,0.878,3.544c0.533,1.385,1.237,2.542,2.091,3.44
						c0.841,0.886,1.817,1.554,2.901,1.987c1.897,0.76,4.249,0.901,6.529,0.275c0.93-0.255,1.771-0.627,2.5-1.106
						c0.687-0.449,1.25-1.012,1.677-1.673c0.393-0.608,0.593-1.299,0.613-2.11l0.036-1.464h10.105l-0.256,1.721
						c-0.313,2.106-0.99,4.013-2.011,5.666c-1.018,1.649-2.328,3.054-3.893,4.173c-1.543,1.104-3.334,1.954-5.323,2.528
						C220.954,201.863,218.831,202.15,216.609,202.15z M215.912,163.3c-2.348,0-4.528,0.411-6.481,1.223
						c-1.93,0.803-3.603,1.974-4.97,3.48c-1.384,1.524-2.482,3.41-3.266,5.604c-0.791,2.217-1.192,4.78-1.192,7.618
						c0,2.887,0.413,5.479,1.227,7.704c0.803,2.198,1.94,4.077,3.379,5.587c1.431,1.5,3.172,2.657,5.177,3.438
						c2.038,0.794,4.333,1.196,6.823,1.196c1.94,0,3.784-0.248,5.478-0.736c1.66-0.479,3.143-1.181,4.409-2.085
						c1.239-0.887,2.277-2,3.085-3.31c0.523-0.848,0.934-1.789,1.226-2.811h-3.723c-0.176,0.793-0.483,1.529-0.918,2.202
						c-0.656,1.015-1.514,1.874-2.551,2.554c-0.992,0.651-2.121,1.153-3.354,1.491c-2.907,0.797-5.936,0.618-8.436-0.384
						c-1.487-0.595-2.82-1.505-3.961-2.705c-1.127-1.185-2.041-2.676-2.717-4.43c-0.657-1.706-1.074-3.729-1.24-6.014l-0.116-1.608
						h28.028v-0.09c0-2.871-0.384-5.462-1.143-7.699c-0.744-2.197-1.813-4.074-3.179-5.58c-1.354-1.492-3.018-2.649-4.944-3.439
						C220.6,163.707,218.365,163.3,215.912,163.3z M228.079,179.12H203.75l0.248-1.715c0.277-1.919,0.763-3.632,1.443-5.091
						c0.695-1.492,1.57-2.756,2.602-3.758c1.046-1.018,2.264-1.792,3.616-2.304c1.33-0.502,2.76-0.757,4.252-0.757
						c3.072,0,5.723,1.039,7.877,3.089c2.113,2.012,3.471,4.978,4.037,8.816L228.079,179.12z M207.293,176.12h17.235
						c-0.558-2.317-1.499-4.116-2.807-5.361c-1.6-1.522-3.5-2.263-5.809-2.263c-1.129,0-2.203,0.189-3.192,0.563
						c-0.966,0.364-1.836,0.92-2.586,1.648c-0.769,0.747-1.433,1.714-1.973,2.874C207.808,174.335,207.518,175.185,207.293,176.12z"
						/>
				</g>
			</g>
		</g>
	</g>
</g>
<g id="basico">
	<g id="Resaltado_Nube_copia">
		<path fill="none" stroke="#25262F" stroke-width="21" stroke-miterlimit="10" d="M119.866,78.465
			c0-16.716,13.551-30.268,30.268-30.268c16.716,0,30.267,13.552,30.267,30.268c16.716,0,30.267,13.551,30.267,30.267
			c0,16.717-13.551,30.268-30.267,30.268h-60.535c0,0-11.847-10.499-11.847-31.166S119.866,78.465,119.866,78.465z"/>
		<g>
			<path fill="none" stroke="#25262F" stroke-width="21" stroke-miterlimit="10" d="M125.865,92.435
				c0.341,2.187,2.069,6.481,3.653,8.065s5.903,1.763,7.667,0.974c5.551-2.483,22.499-20.603,22.499,9.244
				c0,29.846-16.532,11.713-22.499,10.142c-2.071-0.545-5.501,1.14-7.501,4.14s-3.819,10.372-3.819,14H79.3
				c-12.858,0-23.282-10.424-23.282-23.283c0-12.858,10.424-23.282,23.282-23.282c0-12.858,10.424-23.282,23.282-23.282
				C115.441,69.152,123.886,79.729,125.865,92.435z"/>
		</g>
	</g>
	<g id="Colores_Nube_copia">
		<path fill="#CA4733" d="M119.866,78.465c0-16.716,13.551-30.268,30.268-30.268c16.716,0,30.267,13.552,30.267,30.268
			c16.716,0,30.267,13.551,30.267,30.267c0,16.717-13.551,30.268-30.267,30.268h-60.535c0,0-11.847-10.499-11.847-31.166
			S119.866,78.465,119.866,78.465z"/>
		<g>
			<path fill="#EBBA2D" d="M125.865,92.435c0.341,2.187,2.069,6.481,3.653,8.065s5.903,1.763,7.667,0.974
				c5.551-2.483,22.499-20.603,22.499,9.244c0,29.846-16.532,11.713-22.499,10.142c-2.071-0.545-5.501,1.14-7.501,4.14
				s-3.819,10.372-3.819,14H79.3c-12.858,0-23.282-10.424-23.282-23.283c0-12.858,10.424-23.282,23.282-23.282
				c0-12.858,10.424-23.282,23.282-23.282C115.441,69.152,123.886,79.729,125.865,92.435z"/>
		</g>
	</g>
	<g id="Tipografía_copia">
		<g>
			<g>
				<g>
					<path fill="#4DA9B1" d="M48.339,167.422c1.629-1.886,3.374-3.296,5.234-4.226c1.861-0.932,3.8-1.396,5.816-1.396
						c8.375,0,12.562,4.575,12.562,13.726v24.232h-6.63v-23.922c0-1.525-0.13-2.831-0.388-3.917
						c-0.259-1.085-0.666-1.971-1.221-2.655c-0.556-0.685-1.267-1.183-2.133-1.493c-0.866-0.31-1.906-0.465-3.121-0.465
						c-3.36,0-6.733,1.965-10.12,5.894v26.559h-6.552v-37.027h6.552V167.422z"/>
					<path fill="#4DA9B1" d="M73.451,201.258h-9.63v-25.422c0-1.399-0.117-2.601-0.347-3.57c-0.205-0.859-0.517-1.552-0.927-2.057
						c-0.383-0.473-0.866-0.809-1.474-1.026c-0.699-0.25-1.579-0.377-2.615-0.377c-2.774,0-5.672,1.668-8.62,4.959v27.493h-9.552
						v-40.027h9.552v2.627c0.987-0.807,2.01-1.477,3.064-2.003c2.061-1.031,4.243-1.555,6.486-1.555
						c9.199,0,14.062,5.265,14.062,15.226V201.258z M66.821,198.258h3.63v-22.732c0-8.341-3.515-12.226-11.062-12.226
						c-1.772,0-3.503,0.416-5.145,1.238c-1.672,0.835-3.277,2.135-4.771,3.864l-2.635,3.051v-7.223h-3.552v34.027h3.552v-25.616
						l0.364-0.422c3.668-4.256,7.456-6.414,11.256-6.414c1.38,0,2.601,0.186,3.626,0.553c1.124,0.403,2.063,1.063,2.792,1.959
						c0.696,0.858,1.206,1.953,1.516,3.254c0.285,1.198,0.429,2.633,0.429,4.265V198.258z"/>
				</g>
				<g>
					<path fill="#4DA9B1" d="M105.063,195.067c-3.309,3.722-7.018,5.583-11.128,5.583c-8.375,0-12.562-4.562-12.562-13.687v-24.232
						h6.669v23.884c0,1.551,0.129,2.863,0.388,3.936c0.258,1.072,0.665,1.951,1.221,2.636c0.556,0.686,1.266,1.183,2.132,1.493
						c0.866,0.311,1.906,0.465,3.121,0.465c3.696,0,7.082-1.977,10.159-5.932v-26.481h6.552v37.027h-6.552V195.067z"/>
					<path fill="#4DA9B1" d="M93.935,202.15c-9.199,0-14.062-5.251-14.062-15.187v-25.732h9.669v25.384
						c0,1.427,0.116,2.633,0.346,3.584c0.204,0.849,0.516,1.535,0.927,2.041c0.384,0.474,0.866,0.81,1.475,1.027
						c0.697,0.25,1.577,0.377,2.615,0.377c3.116,0,5.952-1.622,8.659-4.955v-27.458h9.552v40.027h-9.552v-2.676
						C100.631,200.953,97.404,202.15,93.935,202.15z M82.873,164.231v22.732c0,8.314,3.515,12.187,11.062,12.187
						c3.694,0,6.968-1.661,10.007-5.08l2.621-2.947v7.136h3.552v-34.027h-3.552v25.496l-0.316,0.406
						c-3.361,4.32-7.177,6.511-11.343,6.511c-1.384,0-2.604-0.186-3.627-0.553c-1.125-0.403-2.063-1.063-2.792-1.961
						c-0.695-0.855-1.205-1.942-1.514-3.229c-0.285-1.18-0.429-2.622-0.429-4.286v-22.384H82.873z"/>
				</g>
				<g>
					<path fill="#4DA9B1" d="M151.395,213.988h-6.552v-18.61c-2.999,3.516-6.527,5.272-10.585,5.272
						c-2.481,0-4.672-0.459-6.572-1.376s-3.503-2.21-4.808-3.878c-1.306-1.667-2.288-3.676-2.947-6.028
						c-0.659-2.352-0.989-4.963-0.989-7.832c0-3.05,0.4-5.797,1.202-8.239s1.906-4.518,3.315-6.223
						c1.408-1.706,3.063-3.012,4.962-3.916c1.9-0.904,3.961-1.357,6.185-1.357c2.016,0,3.87,0.316,5.563,0.95
						c1.693,0.634,3.25,1.57,4.672,2.812v-2.831h6.552V213.988z M144.843,189.057v-17.563c-2.947-2.998-6.217-4.498-9.81-4.498
						c-2.817,0-5.066,1.209-6.746,3.625c-1.681,2.418-2.521,6.056-2.521,10.915c0,4.575,0.795,8.039,2.385,10.391
						c1.589,2.353,3.793,3.528,6.61,3.528c1.835,0,3.593-0.523,5.273-1.57S143.317,191.228,144.843,189.057z"/>
					<path fill="#4DA9B1" d="M152.895,215.488h-9.552v-16.563c-2.691,2.143-5.735,3.225-9.085,3.225
						c-2.697,0-5.127-0.513-7.224-1.525c-2.1-1.014-3.896-2.462-5.337-4.305c-1.42-1.813-2.5-4.017-3.209-6.548
						c-0.693-2.472-1.044-5.243-1.044-8.236c0-3.195,0.43-6.125,1.276-8.707c0.857-2.611,2.063-4.869,3.584-6.711
						c1.542-1.867,3.383-3.319,5.474-4.314c2.096-0.997,4.394-1.503,6.83-1.503c2.187,0,4.236,0.352,6.089,1.045
						c0.916,0.343,1.799,0.77,2.646,1.276v-1.391h9.552V215.488z M146.343,212.488h3.552v-48.257h-3.552v4.632l-2.486-2.171
						c-1.278-1.115-2.695-1.969-4.212-2.537c-1.516-0.566-3.21-0.854-5.038-0.854c-1.987,0-3.851,0.408-5.54,1.212
						c-1.691,0.806-3.189,1.988-4.45,3.517c-1.282,1.552-2.308,3.481-3.047,5.735c-0.748,2.279-1.127,4.894-1.127,7.771
						c0,2.72,0.314,5.219,0.933,7.427c0.603,2.151,1.506,4.005,2.683,5.509c1.157,1.479,2.596,2.64,4.279,3.452
						c1.687,0.813,3.679,1.227,5.92,1.227c3.63,0,6.72-1.553,9.444-4.746l2.641-3.096V212.488z M134.762,196.955
						c-3.333,0-5.976-1.409-7.854-4.188c-1.777-2.63-2.642-6.303-2.642-11.23c0-5.221,0.912-9.071,2.789-11.771
						c1.97-2.832,4.654-4.269,7.978-4.269c3.993,0,7.653,1.664,10.879,4.946l0.43,0.438v18.651l-0.273,0.388
						c-1.636,2.328-3.399,4.09-5.242,5.238C138.914,196.35,136.873,196.955,134.762,196.955z M135.033,168.496
						c-2.316,0-4.12,0.976-5.515,2.981c-1.494,2.149-2.252,5.534-2.252,10.059c0,4.249,0.716,7.463,2.127,9.551
						c1.304,1.93,3.06,2.868,5.368,2.868c1.563,0,3.029-0.439,4.479-1.344c1.402-0.873,2.781-2.229,4.102-4.036v-16.454
						C140.789,169.683,138.065,168.496,135.033,168.496z"/>
				</g>
				<g>
					<path fill="#4DA9B1" d="M184.623,195.067c-3.309,3.722-7.018,5.583-11.128,5.583c-8.375,0-12.562-4.562-12.562-13.687v-24.232
						h6.669v23.884c0,1.551,0.129,2.863,0.388,3.936c0.258,1.072,0.665,1.951,1.221,2.636c0.556,0.686,1.266,1.183,2.132,1.493
						c0.866,0.311,1.906,0.465,3.121,0.465c3.696,0,7.082-1.977,10.159-5.932v-26.481h6.552v37.027h-6.552V195.067z"/>
					<path fill="#4DA9B1" d="M173.495,202.15c-9.199,0-14.062-5.251-14.062-15.187v-25.732h9.669v25.384
						c0,1.427,0.116,2.633,0.346,3.584c0.204,0.849,0.516,1.535,0.927,2.041c0.384,0.474,0.866,0.81,1.475,1.027
						c0.697,0.25,1.577,0.377,2.615,0.377c3.116,0,5.952-1.622,8.659-4.955v-27.458h9.552v40.027h-9.552v-2.676
						C180.191,200.953,176.964,202.15,173.495,202.15z M162.433,164.231v22.732c0,8.314,3.515,12.187,11.062,12.187
						c3.694,0,6.968-1.661,10.007-5.08l2.621-2.947v7.136h3.552v-34.027h-3.552v25.496l-0.316,0.406
						c-3.361,4.32-7.177,6.511-11.343,6.511c-1.384,0-2.604-0.186-3.627-0.553c-1.125-0.403-2.063-1.063-2.792-1.961
						c-0.695-0.855-1.205-1.942-1.514-3.229c-0.285-1.18-0.429-2.622-0.429-4.286v-22.384H162.433z"/>
				</g>
				<g>
					<path fill="#4DA9B1" d="M216.609,200.65c-2.688,0-5.144-0.433-7.367-1.299c-2.223-0.865-4.129-2.133-5.719-3.8
						c-1.59-1.667-2.824-3.702-3.703-6.106c-0.879-2.403-1.318-5.144-1.318-8.22c0-3.024,0.426-5.731,1.279-8.122
						s2.042-4.427,3.567-6.107c1.524-1.68,3.36-2.966,5.505-3.857c2.145-0.892,4.498-1.338,7.057-1.338
						c2.662,0,5.066,0.439,7.211,1.318c2.145,0.879,3.974,2.152,5.486,3.819s2.675,3.702,3.489,6.106
						c0.814,2.404,1.222,5.131,1.222,8.181v1.59h-27.916c0.155,2.146,0.536,4.007,1.144,5.583c0.607,1.577,1.409,2.889,2.404,3.936
						c0.995,1.047,2.138,1.829,3.431,2.346c1.292,0.518,2.701,0.775,4.226,0.775c1.085,0,2.171-0.148,3.257-0.446
						c1.085-0.297,2.061-0.729,2.927-1.299c0.866-0.567,1.57-1.272,2.113-2.112c0.542-0.84,0.827-1.804,0.853-2.889h6.901
						c-0.285,1.913-0.886,3.612-1.803,5.099s-2.081,2.733-3.489,3.741c-1.409,1.008-3.031,1.777-4.866,2.307
						C220.667,200.384,218.703,200.65,216.609,200.65z M226.341,177.62c-0.518-3.515-1.713-6.165-3.586-7.948
						c-1.875-1.783-4.155-2.676-6.843-2.676c-1.318,0-2.559,0.221-3.722,0.66s-2.197,1.098-3.102,1.977
						c-0.905,0.879-1.667,1.984-2.288,3.315c-0.621,1.331-1.061,2.889-1.318,4.672H226.341z"/>
					<path fill="#4DA9B1" d="M216.609,202.15c-2.864,0-5.525-0.472-7.912-1.401c-2.417-0.94-4.523-2.341-6.259-4.162
						c-1.726-1.81-3.081-4.039-4.026-6.627c-0.936-2.556-1.41-5.494-1.41-8.734c0-3.183,0.46-6.085,1.367-8.626
						c0.917-2.568,2.218-4.793,3.87-6.611c1.667-1.837,3.699-3.262,6.04-4.234c2.319-0.964,4.887-1.453,7.632-1.453
						c2.846,0,5.463,0.481,7.78,1.431c2.343,0.96,4.372,2.373,6.028,4.199c1.645,1.813,2.923,4.045,3.799,6.633
						c0.863,2.549,1.301,5.463,1.301,8.662v3.09h-27.75c0.187,1.327,0.481,2.514,0.878,3.544c0.533,1.385,1.237,2.542,2.091,3.44
						c0.841,0.886,1.817,1.554,2.901,1.987c1.897,0.76,4.249,0.901,6.529,0.275c0.93-0.255,1.771-0.627,2.5-1.106
						c0.687-0.449,1.25-1.012,1.677-1.673c0.393-0.608,0.593-1.299,0.613-2.11l0.036-1.464h10.105l-0.256,1.721
						c-0.313,2.106-0.99,4.013-2.011,5.666c-1.018,1.649-2.328,3.054-3.893,4.173c-1.543,1.104-3.334,1.954-5.323,2.528
						C220.954,201.863,218.831,202.15,216.609,202.15z M215.912,163.3c-2.348,0-4.528,0.411-6.481,1.223
						c-1.93,0.803-3.603,1.974-4.97,3.48c-1.384,1.524-2.482,3.41-3.266,5.604c-0.791,2.217-1.192,4.78-1.192,7.618
						c0,2.887,0.413,5.479,1.227,7.704c0.803,2.198,1.94,4.077,3.379,5.587c1.431,1.5,3.172,2.657,5.177,3.438
						c2.038,0.794,4.333,1.196,6.823,1.196c1.94,0,3.784-0.248,5.478-0.736c1.66-0.479,3.143-1.181,4.409-2.085
						c1.239-0.887,2.277-2,3.085-3.31c0.523-0.848,0.934-1.789,1.226-2.811h-3.723c-0.176,0.793-0.483,1.529-0.918,2.202
						c-0.656,1.015-1.514,1.874-2.551,2.554c-0.992,0.651-2.121,1.153-3.354,1.491c-2.907,0.797-5.936,0.618-8.436-0.384
						c-1.487-0.595-2.82-1.505-3.961-2.705c-1.127-1.185-2.041-2.676-2.717-4.43c-0.657-1.706-1.074-3.729-1.24-6.014l-0.116-1.608
						h28.028v-0.09c0-2.871-0.384-5.462-1.143-7.699c-0.744-2.197-1.813-4.074-3.179-5.58c-1.354-1.492-3.018-2.649-4.944-3.439
						C220.6,163.707,218.365,163.3,215.912,163.3z M228.079,179.12H203.75l0.248-1.715c0.277-1.919,0.763-3.632,1.443-5.091
						c0.695-1.492,1.57-2.756,2.602-3.758c1.046-1.018,2.264-1.792,3.616-2.304c1.33-0.502,2.76-0.757,4.252-0.757
						c3.072,0,5.723,1.039,7.877,3.089c2.113,2.012,3.471,4.978,4.037,8.816L228.079,179.12z M207.293,176.12h17.235
						c-0.558-2.317-1.499-4.116-2.807-5.361c-1.6-1.522-3.5-2.263-5.809-2.263c-1.129,0-2.203,0.189-3.192,0.563
						c-0.966,0.364-1.836,0.92-2.586,1.648c-0.769,0.747-1.433,1.714-1.973,2.874C207.808,174.335,207.518,175.185,207.293,176.12z"
						/>
				</g>
			</g>
		</g>
	</g>
</g>
<g id="en_negro">
	<g id="Resaltado_Nube_copia_2">
		<path fill="none" stroke="#000000" stroke-width="21" stroke-miterlimit="10" d="M119.866,78.465
			c0-16.716,13.551-30.268,30.268-30.268c16.716,0,30.267,13.552,30.267,30.268c16.716,0,30.267,13.551,30.267,30.267
			c0,16.717-13.551,30.268-30.267,30.268h-60.535c0,0-11.847-10.499-11.847-31.166S119.866,78.465,119.866,78.465z"/>
		<g>
			<path fill="none" stroke="#000000" stroke-width="21" stroke-miterlimit="10" d="M125.865,92.435
				c0.341,2.187,2.069,6.481,3.653,8.065s5.903,1.763,7.667,0.974c5.551-2.483,22.499-20.603,22.499,9.244
				c0,29.846-16.532,11.713-22.499,10.142c-2.071-0.545-5.501,1.14-7.501,4.14s-3.819,10.372-3.819,14H79.3
				c-12.858,0-23.282-10.424-23.282-23.283c0-12.858,10.424-23.282,23.282-23.282c0-12.858,10.424-23.282,23.282-23.282
				C115.441,69.152,123.886,79.729,125.865,92.435z"/>
		</g>
	</g>
	<g id="Colores_Nube_copia_2">
		<path d="M119.866,78.465c0-16.716,13.551-30.268,30.268-30.268c16.716,0,30.267,13.552,30.267,30.268
			c16.716,0,30.267,13.551,30.267,30.267c0,16.717-13.551,30.268-30.267,30.268h-60.535c0,0-11.847-10.499-11.847-31.166
			S119.866,78.465,119.866,78.465z"/>
		<g>
			<path fill="#FFFFFF" d="M125.865,92.435c0.341,2.187,2.069,6.481,3.653,8.065s5.903,1.763,7.667,0.974
				c5.551-2.483,22.499-20.603,22.499,9.244c0,29.846-16.532,11.713-22.499,10.142c-2.071-0.545-5.501,1.14-7.501,4.14
				s-3.819,10.372-3.819,14H79.3c-12.858,0-23.282-10.424-23.282-23.283c0-12.858,10.424-23.282,23.282-23.282
				c0-12.858,10.424-23.282,23.282-23.282C115.441,69.152,123.886,79.729,125.865,92.435z"/>
		</g>
	</g>
	<g id="Tipografía_copia_2">
		<g>
			<g>
				<g>
					<path d="M48.339,167.422c1.629-1.886,3.374-3.296,5.234-4.226c1.861-0.932,3.8-1.396,5.816-1.396
						c8.375,0,12.562,4.575,12.562,13.726v24.232h-6.63v-23.922c0-1.525-0.13-2.831-0.388-3.917
						c-0.259-1.085-0.666-1.971-1.221-2.655c-0.556-0.685-1.267-1.183-2.133-1.493c-0.866-0.31-1.906-0.465-3.121-0.465
						c-3.36,0-6.733,1.965-10.12,5.894v26.559h-6.552v-37.027h6.552V167.422z"/>
					<path d="M73.451,201.258h-9.63v-25.422c0-1.399-0.117-2.601-0.347-3.57c-0.205-0.859-0.517-1.552-0.927-2.057
						c-0.383-0.473-0.866-0.809-1.474-1.026c-0.699-0.25-1.579-0.377-2.615-0.377c-2.774,0-5.672,1.668-8.62,4.959v27.493h-9.552
						v-40.027h9.552v2.627c0.987-0.807,2.01-1.477,3.064-2.003c2.061-1.031,4.243-1.555,6.486-1.555
						c9.199,0,14.062,5.265,14.062,15.226V201.258z M66.821,198.258h3.63v-22.732c0-8.341-3.515-12.226-11.062-12.226
						c-1.772,0-3.503,0.416-5.145,1.238c-1.672,0.835-3.277,2.135-4.771,3.864l-2.635,3.051v-7.223h-3.552v34.027h3.552v-25.616
						l0.364-0.422c3.668-4.256,7.456-6.414,11.256-6.414c1.38,0,2.601,0.186,3.626,0.553c1.124,0.403,2.063,1.063,2.792,1.959
						c0.696,0.858,1.206,1.953,1.516,3.254c0.285,1.198,0.429,2.633,0.429,4.265V198.258z"/>
				</g>
				<g>
					<path d="M105.063,195.067c-3.309,3.722-7.018,5.583-11.128,5.583c-8.375,0-12.562-4.562-12.562-13.687v-24.232h6.669v23.884
						c0,1.551,0.129,2.863,0.388,3.936c0.258,1.072,0.665,1.951,1.221,2.636c0.556,0.686,1.266,1.183,2.132,1.493
						c0.866,0.311,1.906,0.465,3.121,0.465c3.696,0,7.082-1.977,10.159-5.932v-26.481h6.552v37.027h-6.552V195.067z"/>
					<path d="M93.935,202.15c-9.199,0-14.062-5.251-14.062-15.187v-25.732h9.669v25.384c0,1.427,0.116,2.633,0.346,3.584
						c0.204,0.849,0.516,1.535,0.927,2.041c0.384,0.474,0.866,0.81,1.475,1.027c0.697,0.25,1.577,0.377,2.615,0.377
						c3.116,0,5.952-1.622,8.659-4.955v-27.458h9.552v40.027h-9.552v-2.676C100.631,200.953,97.404,202.15,93.935,202.15z
						 M82.873,164.231v22.732c0,8.314,3.515,12.187,11.062,12.187c3.694,0,6.968-1.661,10.007-5.08l2.621-2.947v7.136h3.552v-34.027
						h-3.552v25.496l-0.316,0.406c-3.361,4.32-7.177,6.511-11.343,6.511c-1.384,0-2.604-0.186-3.627-0.553
						c-1.125-0.403-2.063-1.063-2.792-1.961c-0.695-0.855-1.205-1.942-1.514-3.229c-0.285-1.18-0.429-2.622-0.429-4.286v-22.384
						H82.873z"/>
				</g>
				<g>
					<path d="M151.395,213.988h-6.552v-18.61c-2.999,3.516-6.527,5.272-10.585,5.272c-2.481,0-4.672-0.459-6.572-1.376
						s-3.503-2.21-4.808-3.878c-1.306-1.667-2.288-3.676-2.947-6.028c-0.659-2.352-0.989-4.963-0.989-7.832
						c0-3.05,0.4-5.797,1.202-8.239s1.906-4.518,3.315-6.223c1.408-1.706,3.063-3.012,4.962-3.916
						c1.9-0.904,3.961-1.357,6.185-1.357c2.016,0,3.87,0.316,5.563,0.95c1.693,0.634,3.25,1.57,4.672,2.812v-2.831h6.552V213.988z
						 M144.843,189.057v-17.563c-2.947-2.998-6.217-4.498-9.81-4.498c-2.817,0-5.066,1.209-6.746,3.625
						c-1.681,2.418-2.521,6.056-2.521,10.915c0,4.575,0.795,8.039,2.385,10.391c1.589,2.353,3.793,3.528,6.61,3.528
						c1.835,0,3.593-0.523,5.273-1.57S143.317,191.228,144.843,189.057z"/>
					<path d="M152.895,215.488h-9.552v-16.563c-2.691,2.143-5.735,3.225-9.085,3.225c-2.697,0-5.127-0.513-7.224-1.525
						c-2.1-1.014-3.896-2.462-5.337-4.305c-1.42-1.813-2.5-4.017-3.209-6.548c-0.693-2.472-1.044-5.243-1.044-8.236
						c0-3.195,0.43-6.125,1.276-8.707c0.857-2.611,2.063-4.869,3.584-6.711c1.542-1.867,3.383-3.319,5.474-4.314
						c2.096-0.997,4.394-1.503,6.83-1.503c2.187,0,4.236,0.352,6.089,1.045c0.916,0.343,1.799,0.77,2.646,1.276v-1.391h9.552
						V215.488z M146.343,212.488h3.552v-48.257h-3.552v4.632l-2.486-2.171c-1.278-1.115-2.695-1.969-4.212-2.537
						c-1.516-0.566-3.21-0.854-5.038-0.854c-1.987,0-3.851,0.408-5.54,1.212c-1.691,0.806-3.189,1.988-4.45,3.517
						c-1.282,1.552-2.308,3.481-3.047,5.735c-0.748,2.279-1.127,4.894-1.127,7.771c0,2.72,0.314,5.219,0.933,7.427
						c0.603,2.151,1.506,4.005,2.683,5.509c1.157,1.479,2.596,2.64,4.279,3.452c1.687,0.813,3.679,1.227,5.92,1.227
						c3.63,0,6.72-1.553,9.444-4.746l2.641-3.096V212.488z M134.762,196.955c-3.333,0-5.976-1.409-7.854-4.188
						c-1.777-2.63-2.642-6.303-2.642-11.23c0-5.221,0.912-9.071,2.789-11.771c1.97-2.832,4.654-4.269,7.978-4.269
						c3.993,0,7.653,1.664,10.879,4.946l0.43,0.438v18.651l-0.273,0.388c-1.636,2.328-3.399,4.09-5.242,5.238
						C138.914,196.35,136.873,196.955,134.762,196.955z M135.033,168.496c-2.316,0-4.12,0.976-5.515,2.981
						c-1.494,2.149-2.252,5.534-2.252,10.059c0,4.249,0.716,7.463,2.127,9.551c1.304,1.93,3.06,2.868,5.368,2.868
						c1.563,0,3.029-0.439,4.479-1.344c1.402-0.873,2.781-2.229,4.102-4.036v-16.454
						C140.789,169.683,138.065,168.496,135.033,168.496z"/>
				</g>
				<g>
					<path d="M184.623,195.067c-3.309,3.722-7.018,5.583-11.128,5.583c-8.375,0-12.562-4.562-12.562-13.687v-24.232h6.669v23.884
						c0,1.551,0.129,2.863,0.388,3.936c0.258,1.072,0.665,1.951,1.221,2.636c0.556,0.686,1.266,1.183,2.132,1.493
						c0.866,0.311,1.906,0.465,3.121,0.465c3.696,0,7.082-1.977,10.159-5.932v-26.481h6.552v37.027h-6.552V195.067z"/>
					<path d="M173.495,202.15c-9.199,0-14.062-5.251-14.062-15.187v-25.732h9.669v25.384c0,1.427,0.116,2.633,0.346,3.584
						c0.204,0.849,0.516,1.535,0.927,2.041c0.384,0.474,0.866,0.81,1.475,1.027c0.697,0.25,1.577,0.377,2.615,0.377
						c3.116,0,5.952-1.622,8.659-4.955v-27.458h9.552v40.027h-9.552v-2.676C180.191,200.953,176.964,202.15,173.495,202.15z
						 M162.433,164.231v22.732c0,8.314,3.515,12.187,11.062,12.187c3.694,0,6.968-1.661,10.007-5.08l2.621-2.947v7.136h3.552
						v-34.027h-3.552v25.496l-0.316,0.406c-3.361,4.32-7.177,6.511-11.343,6.511c-1.384,0-2.604-0.186-3.627-0.553
						c-1.125-0.403-2.063-1.063-2.792-1.961c-0.695-0.855-1.205-1.942-1.514-3.229c-0.285-1.18-0.429-2.622-0.429-4.286v-22.384
						H162.433z"/>
				</g>
				<g>
					<path d="M216.609,200.65c-2.688,0-5.144-0.433-7.367-1.299c-2.223-0.865-4.129-2.133-5.719-3.8
						c-1.59-1.667-2.824-3.702-3.703-6.106c-0.879-2.403-1.318-5.144-1.318-8.22c0-3.024,0.426-5.731,1.279-8.122
						s2.042-4.427,3.567-6.107c1.524-1.68,3.36-2.966,5.505-3.857c2.145-0.892,4.498-1.338,7.057-1.338
						c2.662,0,5.066,0.439,7.211,1.318c2.145,0.879,3.974,2.152,5.486,3.819s2.675,3.702,3.489,6.106
						c0.814,2.404,1.222,5.131,1.222,8.181v1.59h-27.916c0.155,2.146,0.536,4.007,1.144,5.583c0.607,1.577,1.409,2.889,2.404,3.936
						c0.995,1.047,2.138,1.829,3.431,2.346c1.292,0.518,2.701,0.775,4.226,0.775c1.085,0,2.171-0.148,3.257-0.446
						c1.085-0.297,2.061-0.729,2.927-1.299c0.866-0.567,1.57-1.272,2.113-2.112c0.542-0.84,0.827-1.804,0.853-2.889h6.901
						c-0.285,1.913-0.886,3.612-1.803,5.099s-2.081,2.733-3.489,3.741c-1.409,1.008-3.031,1.777-4.866,2.307
						C220.667,200.384,218.703,200.65,216.609,200.65z M226.341,177.62c-0.518-3.515-1.713-6.165-3.586-7.948
						c-1.875-1.783-4.155-2.676-6.843-2.676c-1.318,0-2.559,0.221-3.722,0.66s-2.197,1.098-3.102,1.977
						c-0.905,0.879-1.667,1.984-2.288,3.315c-0.621,1.331-1.061,2.889-1.318,4.672H226.341z"/>
					<path d="M216.609,202.15c-2.864,0-5.525-0.472-7.912-1.401c-2.417-0.94-4.523-2.341-6.259-4.162
						c-1.726-1.81-3.081-4.039-4.026-6.627c-0.936-2.556-1.41-5.494-1.41-8.734c0-3.183,0.46-6.085,1.367-8.626
						c0.917-2.568,2.218-4.793,3.87-6.611c1.667-1.837,3.699-3.262,6.04-4.234c2.319-0.964,4.887-1.453,7.632-1.453
						c2.846,0,5.463,0.481,7.78,1.431c2.343,0.96,4.372,2.373,6.028,4.199c1.645,1.813,2.923,4.045,3.799,6.633
						c0.863,2.549,1.301,5.463,1.301,8.662v3.09h-27.75c0.187,1.327,0.481,2.514,0.878,3.544c0.533,1.385,1.237,2.542,2.091,3.44
						c0.841,0.886,1.817,1.554,2.901,1.987c1.897,0.76,4.249,0.901,6.529,0.275c0.93-0.255,1.771-0.627,2.5-1.106
						c0.687-0.449,1.25-1.012,1.677-1.673c0.393-0.608,0.593-1.299,0.613-2.11l0.036-1.464h10.105l-0.256,1.721
						c-0.313,2.106-0.99,4.013-2.011,5.666c-1.018,1.649-2.328,3.054-3.893,4.173c-1.543,1.104-3.334,1.954-5.323,2.528
						C220.954,201.863,218.831,202.15,216.609,202.15z M215.912,163.3c-2.348,0-4.528,0.411-6.481,1.223
						c-1.93,0.803-3.603,1.974-4.97,3.48c-1.384,1.524-2.482,3.41-3.266,5.604c-0.791,2.217-1.192,4.78-1.192,7.618
						c0,2.887,0.413,5.479,1.227,7.704c0.803,2.198,1.94,4.077,3.379,5.587c1.431,1.5,3.172,2.657,5.177,3.438
						c2.038,0.794,4.333,1.196,6.823,1.196c1.94,0,3.784-0.248,5.478-0.736c1.66-0.479,3.143-1.181,4.409-2.085
						c1.239-0.887,2.277-2,3.085-3.31c0.523-0.848,0.934-1.789,1.226-2.811h-3.723c-0.176,0.793-0.483,1.529-0.918,2.202
						c-0.656,1.015-1.514,1.874-2.551,2.554c-0.992,0.651-2.121,1.153-3.354,1.491c-2.907,0.797-5.936,0.618-8.436-0.384
						c-1.487-0.595-2.82-1.505-3.961-2.705c-1.127-1.185-2.041-2.676-2.717-4.43c-0.657-1.706-1.074-3.729-1.24-6.014l-0.116-1.608
						h28.028v-0.09c0-2.871-0.384-5.462-1.143-7.699c-0.744-2.197-1.813-4.074-3.179-5.58c-1.354-1.492-3.018-2.649-4.944-3.439
						C220.6,163.707,218.365,163.3,215.912,163.3z M228.079,179.12H203.75l0.248-1.715c0.277-1.919,0.763-3.632,1.443-5.091
						c0.695-1.492,1.57-2.756,2.602-3.758c1.046-1.018,2.264-1.792,3.616-2.304c1.33-0.502,2.76-0.757,4.252-0.757
						c3.072,0,5.723,1.039,7.877,3.089c2.113,2.012,3.471,4.978,4.037,8.816L228.079,179.12z M207.293,176.12h17.235
						c-0.558-2.317-1.499-4.116-2.807-5.361c-1.6-1.522-3.5-2.263-5.809-2.263c-1.129,0-2.203,0.189-3.192,0.563
						c-0.966,0.364-1.836,0.92-2.586,1.648c-0.769,0.747-1.433,1.714-1.973,2.874C207.808,174.335,207.518,175.185,207.293,176.12z"
						/>
				</g>
			</g>
		</g>
	</g>
</g>
<g id="en_gris">
	<g id="Resaltado_Nube_copia_3">
		<path fill="none" stroke="#999998" stroke-width="21" stroke-miterlimit="10" d="M119.866,78.465
			c0-16.716,13.551-30.268,30.268-30.268c16.716,0,30.267,13.552,30.267,30.268c16.716,0,30.267,13.551,30.267,30.267
			c0,16.717-13.551,30.268-30.267,30.268h-60.535c0,0-11.847-10.499-11.847-31.166S119.866,78.465,119.866,78.465z"/>
		<g>
			<path fill="none" stroke="#999998" stroke-width="21" stroke-miterlimit="10" d="M125.865,92.435
				c0.341,2.187,2.069,6.481,3.653,8.065s5.903,1.763,7.667,0.974c5.551-2.483,22.499-20.603,22.499,9.244
				c0,29.846-16.532,11.713-22.499,10.142c-2.071-0.545-5.501,1.14-7.501,4.14s-3.819,10.372-3.819,14H79.3
				c-12.858,0-23.282-10.424-23.282-23.283c0-12.858,10.424-23.282,23.282-23.282c0-12.858,10.424-23.282,23.282-23.282
				C115.441,69.152,123.886,79.729,125.865,92.435z"/>
		</g>
	</g>
	<g id="Colores_Nube_copia_3">
		<path fill="#999998" d="M119.866,78.465c0-16.716,13.551-30.268,30.268-30.268c16.716,0,30.267,13.552,30.267,30.268
			c16.716,0,30.267,13.551,30.267,30.267c0,16.717-13.551,30.268-30.267,30.268h-60.535c0,0-11.847-10.499-11.847-31.166
			S119.866,78.465,119.866,78.465z"/>
		<g>
			<path fill="#FFFFFF" d="M125.865,92.435c0.341,2.187,2.069,6.481,3.653,8.065s5.903,1.763,7.667,0.974
				c5.551-2.483,22.499-20.603,22.499,9.244c0,29.846-16.532,11.713-22.499,10.142c-2.071-0.545-5.501,1.14-7.501,4.14
				s-3.819,10.372-3.819,14H79.3c-12.858,0-23.282-10.424-23.282-23.283c0-12.858,10.424-23.282,23.282-23.282
				c0-12.858,10.424-23.282,23.282-23.282C115.441,69.152,123.886,79.729,125.865,92.435z"/>
		</g>
	</g>
	<g id="Tipografía_copia_3">
		<g>
			<g>
				<g>
					<path fill="#999998" d="M48.339,167.422c1.629-1.886,3.374-3.296,5.234-4.226c1.861-0.932,3.8-1.396,5.816-1.396
						c8.375,0,12.562,4.575,12.562,13.726v24.232h-6.63v-23.922c0-1.525-0.13-2.831-0.388-3.917
						c-0.259-1.085-0.666-1.971-1.221-2.655c-0.556-0.685-1.267-1.183-2.133-1.493c-0.866-0.31-1.906-0.465-3.121-0.465
						c-3.36,0-6.733,1.965-10.12,5.894v26.559h-6.552v-37.027h6.552V167.422z"/>
					<path fill="#999998" d="M73.451,201.258h-9.63v-25.422c0-1.399-0.117-2.601-0.347-3.57c-0.205-0.859-0.517-1.552-0.927-2.057
						c-0.383-0.473-0.866-0.809-1.474-1.026c-0.699-0.25-1.579-0.377-2.615-0.377c-2.774,0-5.672,1.668-8.62,4.959v27.493h-9.552
						v-40.027h9.552v2.627c0.987-0.807,2.01-1.477,3.064-2.003c2.061-1.031,4.243-1.555,6.486-1.555
						c9.199,0,14.062,5.265,14.062,15.226V201.258z M66.821,198.258h3.63v-22.732c0-8.341-3.515-12.226-11.062-12.226
						c-1.772,0-3.503,0.416-5.145,1.238c-1.672,0.835-3.277,2.135-4.771,3.864l-2.635,3.051v-7.223h-3.552v34.027h3.552v-25.616
						l0.364-0.422c3.668-4.256,7.456-6.414,11.256-6.414c1.38,0,2.601,0.186,3.626,0.553c1.124,0.403,2.063,1.063,2.792,1.959
						c0.696,0.858,1.206,1.953,1.516,3.254c0.285,1.198,0.429,2.633,0.429,4.265V198.258z"/>
				</g>
				<g>
					<path fill="#999998" d="M105.063,195.067c-3.309,3.722-7.018,5.583-11.128,5.583c-8.375,0-12.562-4.562-12.562-13.687v-24.232
						h6.669v23.884c0,1.551,0.129,2.863,0.388,3.936c0.258,1.072,0.665,1.951,1.221,2.636c0.556,0.686,1.266,1.183,2.132,1.493
						c0.866,0.311,1.906,0.465,3.121,0.465c3.696,0,7.082-1.977,10.159-5.932v-26.481h6.552v37.027h-6.552V195.067z"/>
					<path fill="#999998" d="M93.935,202.15c-9.199,0-14.062-5.251-14.062-15.187v-25.732h9.669v25.384
						c0,1.427,0.116,2.633,0.346,3.584c0.204,0.849,0.516,1.535,0.927,2.041c0.384,0.474,0.866,0.81,1.475,1.027
						c0.697,0.25,1.577,0.377,2.615,0.377c3.116,0,5.952-1.622,8.659-4.955v-27.458h9.552v40.027h-9.552v-2.676
						C100.631,200.953,97.404,202.15,93.935,202.15z M82.873,164.231v22.732c0,8.314,3.515,12.187,11.062,12.187
						c3.694,0,6.968-1.661,10.007-5.08l2.621-2.947v7.136h3.552v-34.027h-3.552v25.496l-0.316,0.406
						c-3.361,4.32-7.177,6.511-11.343,6.511c-1.384,0-2.604-0.186-3.627-0.553c-1.125-0.403-2.063-1.063-2.792-1.961
						c-0.695-0.855-1.205-1.942-1.514-3.229c-0.285-1.18-0.429-2.622-0.429-4.286v-22.384H82.873z"/>
				</g>
				<g>
					<path fill="#999998" d="M151.395,213.988h-6.552v-18.61c-2.999,3.516-6.527,5.272-10.585,5.272
						c-2.481,0-4.672-0.459-6.572-1.376s-3.503-2.21-4.808-3.878c-1.306-1.667-2.288-3.676-2.947-6.028
						c-0.659-2.352-0.989-4.963-0.989-7.832c0-3.05,0.4-5.797,1.202-8.239s1.906-4.518,3.315-6.223
						c1.408-1.706,3.063-3.012,4.962-3.916c1.9-0.904,3.961-1.357,6.185-1.357c2.016,0,3.87,0.316,5.563,0.95
						c1.693,0.634,3.25,1.57,4.672,2.812v-2.831h6.552V213.988z M144.843,189.057v-17.563c-2.947-2.998-6.217-4.498-9.81-4.498
						c-2.817,0-5.066,1.209-6.746,3.625c-1.681,2.418-2.521,6.056-2.521,10.915c0,4.575,0.795,8.039,2.385,10.391
						c1.589,2.353,3.793,3.528,6.61,3.528c1.835,0,3.593-0.523,5.273-1.57S143.317,191.228,144.843,189.057z"/>
					<path fill="#999998" d="M152.895,215.488h-9.552v-16.563c-2.691,2.143-5.735,3.225-9.085,3.225
						c-2.697,0-5.127-0.513-7.224-1.525c-2.1-1.014-3.896-2.462-5.337-4.305c-1.42-1.813-2.5-4.017-3.209-6.548
						c-0.693-2.472-1.044-5.243-1.044-8.236c0-3.195,0.43-6.125,1.276-8.707c0.857-2.611,2.063-4.869,3.584-6.711
						c1.542-1.867,3.383-3.319,5.474-4.314c2.096-0.997,4.394-1.503,6.83-1.503c2.187,0,4.236,0.352,6.089,1.045
						c0.916,0.343,1.799,0.77,2.646,1.276v-1.391h9.552V215.488z M146.343,212.488h3.552v-48.257h-3.552v4.632l-2.486-2.171
						c-1.278-1.115-2.695-1.969-4.212-2.537c-1.516-0.566-3.21-0.854-5.038-0.854c-1.987,0-3.851,0.408-5.54,1.212
						c-1.691,0.806-3.189,1.988-4.45,3.517c-1.282,1.552-2.308,3.481-3.047,5.735c-0.748,2.279-1.127,4.894-1.127,7.771
						c0,2.72,0.314,5.219,0.933,7.427c0.603,2.151,1.506,4.005,2.683,5.509c1.157,1.479,2.596,2.64,4.279,3.452
						c1.687,0.813,3.679,1.227,5.92,1.227c3.63,0,6.72-1.553,9.444-4.746l2.641-3.096V212.488z M134.762,196.955
						c-3.333,0-5.976-1.409-7.854-4.188c-1.777-2.63-2.642-6.303-2.642-11.23c0-5.221,0.912-9.071,2.789-11.771
						c1.97-2.832,4.654-4.269,7.978-4.269c3.993,0,7.653,1.664,10.879,4.946l0.43,0.438v18.651l-0.273,0.388
						c-1.636,2.328-3.399,4.09-5.242,5.238C138.914,196.35,136.873,196.955,134.762,196.955z M135.033,168.496
						c-2.316,0-4.12,0.976-5.515,2.981c-1.494,2.149-2.252,5.534-2.252,10.059c0,4.249,0.716,7.463,2.127,9.551
						c1.304,1.93,3.06,2.868,5.368,2.868c1.563,0,3.029-0.439,4.479-1.344c1.402-0.873,2.781-2.229,4.102-4.036v-16.454
						C140.789,169.683,138.065,168.496,135.033,168.496z"/>
				</g>
				<g>
					<path fill="#999998" d="M184.623,195.067c-3.309,3.722-7.018,5.583-11.128,5.583c-8.375,0-12.562-4.562-12.562-13.687v-24.232
						h6.669v23.884c0,1.551,0.129,2.863,0.388,3.936c0.258,1.072,0.665,1.951,1.221,2.636c0.556,0.686,1.266,1.183,2.132,1.493
						c0.866,0.311,1.906,0.465,3.121,0.465c3.696,0,7.082-1.977,10.159-5.932v-26.481h6.552v37.027h-6.552V195.067z"/>
					<path fill="#999998" d="M173.495,202.15c-9.199,0-14.062-5.251-14.062-15.187v-25.732h9.669v25.384
						c0,1.427,0.116,2.633,0.346,3.584c0.204,0.849,0.516,1.535,0.927,2.041c0.384,0.474,0.866,0.81,1.475,1.027
						c0.697,0.25,1.577,0.377,2.615,0.377c3.116,0,5.952-1.622,8.659-4.955v-27.458h9.552v40.027h-9.552v-2.676
						C180.191,200.953,176.964,202.15,173.495,202.15z M162.433,164.231v22.732c0,8.314,3.515,12.187,11.062,12.187
						c3.694,0,6.968-1.661,10.007-5.08l2.621-2.947v7.136h3.552v-34.027h-3.552v25.496l-0.316,0.406
						c-3.361,4.32-7.177,6.511-11.343,6.511c-1.384,0-2.604-0.186-3.627-0.553c-1.125-0.403-2.063-1.063-2.792-1.961
						c-0.695-0.855-1.205-1.942-1.514-3.229c-0.285-1.18-0.429-2.622-0.429-4.286v-22.384H162.433z"/>
				</g>
				<g>
					<path fill="#999998" d="M216.609,200.65c-2.688,0-5.144-0.433-7.367-1.299c-2.223-0.865-4.129-2.133-5.719-3.8
						c-1.59-1.667-2.824-3.702-3.703-6.106c-0.879-2.403-1.318-5.144-1.318-8.22c0-3.024,0.426-5.731,1.279-8.122
						s2.042-4.427,3.567-6.107c1.524-1.68,3.36-2.966,5.505-3.857c2.145-0.892,4.498-1.338,7.057-1.338
						c2.662,0,5.066,0.439,7.211,1.318c2.145,0.879,3.974,2.152,5.486,3.819s2.675,3.702,3.489,6.106
						c0.814,2.404,1.222,5.131,1.222,8.181v1.59h-27.916c0.155,2.146,0.536,4.007,1.144,5.583c0.607,1.577,1.409,2.889,2.404,3.936
						c0.995,1.047,2.138,1.829,3.431,2.346c1.292,0.518,2.701,0.775,4.226,0.775c1.085,0,2.171-0.148,3.257-0.446
						c1.085-0.297,2.061-0.729,2.927-1.299c0.866-0.567,1.57-1.272,2.113-2.112c0.542-0.84,0.827-1.804,0.853-2.889h6.901
						c-0.285,1.913-0.886,3.612-1.803,5.099s-2.081,2.733-3.489,3.741c-1.409,1.008-3.031,1.777-4.866,2.307
						C220.667,200.384,218.703,200.65,216.609,200.65z M226.341,177.62c-0.518-3.515-1.713-6.165-3.586-7.948
						c-1.875-1.783-4.155-2.676-6.843-2.676c-1.318,0-2.559,0.221-3.722,0.66s-2.197,1.098-3.102,1.977
						c-0.905,0.879-1.667,1.984-2.288,3.315c-0.621,1.331-1.061,2.889-1.318,4.672H226.341z"/>
					<path fill="#999998" d="M216.609,202.15c-2.864,0-5.525-0.472-7.912-1.401c-2.417-0.94-4.523-2.341-6.259-4.162
						c-1.726-1.81-3.081-4.039-4.026-6.627c-0.936-2.556-1.41-5.494-1.41-8.734c0-3.183,0.46-6.085,1.367-8.626
						c0.917-2.568,2.218-4.793,3.87-6.611c1.667-1.837,3.699-3.262,6.04-4.234c2.319-0.964,4.887-1.453,7.632-1.453
						c2.846,0,5.463,0.481,7.78,1.431c2.343,0.96,4.372,2.373,6.028,4.199c1.645,1.813,2.923,4.045,3.799,6.633
						c0.863,2.549,1.301,5.463,1.301,8.662v3.09h-27.75c0.187,1.327,0.481,2.514,0.878,3.544c0.533,1.385,1.237,2.542,2.091,3.44
						c0.841,0.886,1.817,1.554,2.901,1.987c1.897,0.76,4.249,0.901,6.529,0.275c0.93-0.255,1.771-0.627,2.5-1.106
						c0.687-0.449,1.25-1.012,1.677-1.673c0.393-0.608,0.593-1.299,0.613-2.11l0.036-1.464h10.105l-0.256,1.721
						c-0.313,2.106-0.99,4.013-2.011,5.666c-1.018,1.649-2.328,3.054-3.893,4.173c-1.543,1.104-3.334,1.954-5.323,2.528
						C220.954,201.863,218.831,202.15,216.609,202.15z M215.912,163.3c-2.348,0-4.528,0.411-6.481,1.223
						c-1.93,0.803-3.603,1.974-4.97,3.48c-1.384,1.524-2.482,3.41-3.266,5.604c-0.791,2.217-1.192,4.78-1.192,7.618
						c0,2.887,0.413,5.479,1.227,7.704c0.803,2.198,1.94,4.077,3.379,5.587c1.431,1.5,3.172,2.657,5.177,3.438
						c2.038,0.794,4.333,1.196,6.823,1.196c1.94,0,3.784-0.248,5.478-0.736c1.66-0.479,3.143-1.181,4.409-2.085
						c1.239-0.887,2.277-2,3.085-3.31c0.523-0.848,0.934-1.789,1.226-2.811h-3.723c-0.176,0.793-0.483,1.529-0.918,2.202
						c-0.656,1.015-1.514,1.874-2.551,2.554c-0.992,0.651-2.121,1.153-3.354,1.491c-2.907,0.797-5.936,0.618-8.436-0.384
						c-1.487-0.595-2.82-1.505-3.961-2.705c-1.127-1.185-2.041-2.676-2.717-4.43c-0.657-1.706-1.074-3.729-1.24-6.014l-0.116-1.608
						h28.028v-0.09c0-2.871-0.384-5.462-1.143-7.699c-0.744-2.197-1.813-4.074-3.179-5.58c-1.354-1.492-3.018-2.649-4.944-3.439
						C220.6,163.707,218.365,163.3,215.912,163.3z M228.079,179.12H203.75l0.248-1.715c0.277-1.919,0.763-3.632,1.443-5.091
						c0.695-1.492,1.57-2.756,2.602-3.758c1.046-1.018,2.264-1.792,3.616-2.304c1.33-0.502,2.76-0.757,4.252-0.757
						c3.072,0,5.723,1.039,7.877,3.089c2.113,2.012,3.471,4.978,4.037,8.816L228.079,179.12z M207.293,176.12h17.235
						c-0.558-2.317-1.499-4.116-2.807-5.361c-1.6-1.522-3.5-2.263-5.809-2.263c-1.129,0-2.203,0.189-3.192,0.563
						c-0.966,0.364-1.836,0.92-2.586,1.648c-0.769,0.747-1.433,1.714-1.973,2.874C207.808,174.335,207.518,175.185,207.293,176.12z"
						/>
				</g>
			</g>
		</g>
	</g>
</g>
</svg>
