<?xml version="1.0" encoding="utf-8"?>
<!-- Generator: Adobe Illustrator 16.0.0, SVG Export Plug-In . SVG Version: 6.00 Build 0)  -->
<!DOCTYPE svg PUBLIC "-//W3C//DTD SVG 1.1//EN" "http://www.w3.org/Graphics/SVG/1.1/DTD/svg11.dtd">
<svg version="1.1" id="Capa_1" xmlns="http://www.w3.org/2000/svg" xmlns:xlink="http://www.w3.org/1999/xlink" x="0px" y="0px"
	 width="120.191px" height="101.422px" viewBox="0 0 120.191 101.422" enable-background="new 0 0 120.191 101.422"
	 xml:space="preserve">
<g id="Layer_x0020_1_2_">
	<linearGradient id="SVGID_1_" gradientUnits="userSpaceOnUse" x1="-14.7861" y1="-23.498" x2="97.2148" y2="87.503">
		<stop  offset="0" style="stop-color:#F1B018"/>
		<stop  offset="1" style="stop-color:#B3312A"/>
	</linearGradient>
	<path fill="url(#SVGID_1_)" d="M1.876,0.01H1.93h116.385c1.035,0,1.877,0.842,1.877,1.874v0.053v14.921v0.053v0.054v82.583
		c0,1.033-0.842,1.875-1.877,1.875h-0.051H1.876C0.844,101.422,0,100.58,0,99.547v-0.053V16.953v-0.052v-0.051V1.876
		C0,0.842,0.844,0,1.876,0V0.01z M84.512,93.909c-1.034,0-1.877-0.842-1.877-1.876c0-1.033,0.843-1.877,1.877-1.877h18.629
		c1.035,0,1.877,0.844,1.877,1.877c0,1.034-0.842,1.876-1.877,1.876H84.512z M92.025,84.521c-1.035,0-1.877-0.843-1.877-1.877
		s0.842-1.876,1.877-1.876h18.631c1.032,0,1.874,0.842,1.874,1.876s-0.842,1.877-1.874,1.877H92.025z M9.389,26.3
		c-1.033,0-1.877-0.842-1.877-1.877c0-1.032,0.844-1.876,1.877-1.876H28.02c1.033,0,1.876,0.844,1.876,1.876
		c0,1.035-0.843,1.877-1.876,1.877H9.389z M16.902,35.69c-1.034,0-1.878-0.844-1.878-1.878c0-1.033,0.844-1.875,1.878-1.875h18.631
		c1.033,0,1.875,0.842,1.875,1.875c0,1.034-0.842,1.878-1.875,1.878H16.902z M60.217,31.929c3.97,0,7.723,0.999,11.013,2.743
		c3.041,1.616,5.689,3.883,7.749,6.62l0.739-0.089c0.687-0.069,1.354-0.111,1.988-0.111c5.22,0,9.944,2.118,13.358,5.533
		l0.113,0.121c3.352,3.414,5.428,8.085,5.428,13.246c0,5.037-1.98,9.633-5.211,13.019c-3.16,3.327-7.529,5.507-12.404,5.829
		c-0.139,0.035-0.287,0.052-0.434,0.052h-0.051h-0.8h-0.175H60.418h-0.193H35.134c-4.282,0-8.165-1.737-10.972-4.542l-0.111-0.123
		c-2.736-2.797-4.439-6.626-4.439-10.849c0-4.28,1.737-8.163,4.543-10.968c2.807-2.807,6.688-4.545,10.971-4.545
		c0.791,0,1.579,0.063,2.354,0.176l0.434,0.068c1.459-4.455,4.205-8.313,7.801-11.143c3.995-3.146,9.031-5.021,14.504-5.021V31.929z
		 M69.469,37.974c-2.746-1.46-5.898-2.294-9.252-2.294c-4.604,0-8.842,1.58-12.194,4.215c-3.404,2.681-5.905,6.452-6.966,10.777
		l-0.052,0.227c-0.304,0.989-1.362,1.537-2.346,1.232c-0.556-0.174-1.138-0.304-1.737-0.399c-0.574-0.088-1.181-0.13-1.788-0.13
		c-3.25,0-6.194,1.32-8.312,3.448c-2.129,2.127-3.449,5.071-3.449,8.312c0,3.197,1.277,6.106,3.342,8.217l0.107,0.096
		c2.127,2.128,5.07,3.448,8.312,3.448h25.091h0.193h21.113h0.175h0.608l0.146-0.017c4.014-0.19,7.617-1.964,10.215-4.691
		c2.58-2.709,4.169-6.393,4.169-10.44c0-4.134-1.657-7.887-4.343-10.623l-0.096-0.086c-2.736-2.734-6.521-4.438-10.7-4.438
		c-0.565,0-1.104,0.027-1.6,0.079H80.1c-0.496,0.051-1.01,0.13-1.512,0.241 M76.582,44.375c-1.807-2.684-4.256-4.899-7.113-6.418
		 M28.176,7.496h3.752v3.76h-3.752V7.496z M18.787,7.496h3.752v3.76h-3.752V7.496z M9.397,7.496h3.753v3.76H9.397V7.496z
		 M116.447,18.769H3.769v78.875h112.679V18.769z M3.769,15.009h112.679V3.743H3.769V15.009z"/>
</g>
</svg>
